<mxfile host="app.diagrams.net" agent="Mozilla/5.0 (Macintosh; Intel Mac OS X 10_15_7) AppleWebKit/537.36 (KHTML, like Gecko) Chrome/130.0.0.0 Safari/537.36" version="24.8.4">
  <diagram name="第 1 页" id="qipLQLGJwBN0YQek5SwC">
    <mxGraphModel dx="1548" dy="2058" grid="1" gridSize="10" guides="1" tooltips="1" connect="1" arrows="1" fold="1" page="1" pageScale="1" pageWidth="827" pageHeight="1169" math="0" shadow="0">
      <root>
        <mxCell id="0" />
        <mxCell id="1" parent="0" />
        <mxCell id="cepE9wcwmbxno1sN5WoF-1" value="Actor" style="shape=umlActor;verticalLabelPosition=bottom;verticalAlign=top;html=1;outlineConnect=0;" vertex="1" parent="1">
          <mxGeometry x="110" y="200" width="30" height="60" as="geometry" />
        </mxCell>
        <mxCell id="cepE9wcwmbxno1sN5WoF-2" value="" style="endArrow=classic;html=1;rounded=0;" edge="1" parent="1">
          <mxGeometry width="50" height="50" relative="1" as="geometry">
            <mxPoint x="160" y="229.5" as="sourcePoint" />
            <mxPoint x="230" y="229.5" as="targetPoint" />
          </mxGeometry>
        </mxCell>
        <mxCell id="cepE9wcwmbxno1sN5WoF-3" value="&lt;div&gt;&lt;span style=&quot;background-color: initial;&quot;&gt;打开小红书&lt;/span&gt;&lt;/div&gt;&lt;div&gt;&lt;span style=&quot;background-color: initial;&quot;&gt;（&lt;/span&gt;&lt;span style=&quot;background-color: initial;&quot;&gt;冷启动&lt;/span&gt;&lt;span style=&quot;background-color: initial;&quot;&gt;）&lt;/span&gt;&lt;/div&gt;" style="rounded=0;whiteSpace=wrap;html=1;" vertex="1" parent="1">
          <mxGeometry x="250" y="200" width="120" height="60" as="geometry" />
        </mxCell>
        <mxCell id="cepE9wcwmbxno1sN5WoF-37" style="edgeStyle=orthogonalEdgeStyle;rounded=0;orthogonalLoop=1;jettySize=auto;html=1;entryX=0.5;entryY=0;entryDx=0;entryDy=0;" edge="1" parent="1" source="cepE9wcwmbxno1sN5WoF-6" target="cepE9wcwmbxno1sN5WoF-7">
          <mxGeometry relative="1" as="geometry" />
        </mxCell>
        <mxCell id="cepE9wcwmbxno1sN5WoF-6" value="&lt;span style=&quot;background-color: rgb(255, 255, 255); color: rgb(11, 79, 121); font-family: Menlo; text-align: start;&quot;&gt;XYPHHomeTabbarController&lt;/span&gt;&lt;div&gt;&lt;div style=&quot;text-align: start;&quot;&gt;&lt;p style=&quot;margin: 0px; font-variant-numeric: normal; font-variant-east-asian: normal; font-variant-alternates: normal; font-size-adjust: none; font-kerning: auto; font-optical-sizing: auto; font-feature-settings: normal; font-variation-settings: normal; font-variant-position: normal; font-stretch: normal; line-height: normal; font-family: Menlo; color: rgb(15, 104, 160); background-color: rgb(255, 255, 255);&quot; class=&quot;p1&quot;&gt;exploreFeedLoadHasFinished&lt;/p&gt;&lt;/div&gt;&lt;div&gt;首刷完成&lt;/div&gt;&lt;/div&gt;" style="rounded=0;whiteSpace=wrap;html=1;fillColor=none;strokeColor=default;" vertex="1" parent="1">
          <mxGeometry x="470" y="110" width="200" height="60" as="geometry" />
        </mxCell>
        <mxCell id="cepE9wcwmbxno1sN5WoF-38" style="edgeStyle=orthogonalEdgeStyle;rounded=0;orthogonalLoop=1;jettySize=auto;html=1;entryX=0.5;entryY=0;entryDx=0;entryDy=0;" edge="1" parent="1" source="cepE9wcwmbxno1sN5WoF-7" target="cepE9wcwmbxno1sN5WoF-9">
          <mxGeometry relative="1" as="geometry" />
        </mxCell>
        <mxCell id="cepE9wcwmbxno1sN5WoF-7" value="&lt;span style=&quot;color: rgba(0, 0, 0, 0); font-family: monospace; font-size: 0px; text-align: start; text-wrap-mode: nowrap;&quot;&gt;%3CmxGraphModel%3E%3Croot%3E%3CmxCell%20id%3D%220%22%2F%3E%3CmxCell%20id%3D%221%22%20parent%3D%220%22%2F%3E%3CmxCell%20id%3D%222%22%20value%3D%22%26lt%3Bspan%20style%3D%26quot%3Bbackground-color%3A%20rgb(255%2C%20255%2C%20255)%3B%20color%3A%20rgb(11%2C%2079%2C%20121)%3B%20font-family%3A%20Menlo%3B%20text-align%3A%20start%3B%26quot%3B%26gt%3BXYPHHomeTabbarController%26lt%3B%2Fspan%26gt%3B%26lt%3Bdiv%26gt%3B%26lt%3Bdiv%20style%3D%26quot%3Btext-align%3A%20start%3B%26quot%3B%26gt%3B%26lt%3Bp%20style%3D%26quot%3Bmargin%3A%200px%3B%20font-variant-numeric%3A%20normal%3B%20font-variant-east-asian%3A%20normal%3B%20font-variant-alternates%3A%20normal%3B%20font-size-adjust%3A%20none%3B%20font-kerning%3A%20auto%3B%20font-optical-sizing%3A%20auto%3B%20font-feature-settings%3A%20normal%3B%20font-variation-settings%3A%20normal%3B%20font-variant-position%3A%20normal%3B%20font-stretch%3A%20normal%3B%20line-height%3A%20normal%3B%20font-family%3A%20Menlo%3B%20color%3A%20rgb(15%2C%20104%2C%20160)%3B%20background-color%3A%20rgb(255%2C%20255%2C%20255)%3B%26quot%3B%20class%3D%26quot%3Bp1%26quot%3B%26gt%3BexploreFeedLoadHasFinished%26lt%3B%2Fp%26gt%3B%26lt%3B%2Fdiv%26gt%3B%26lt%3Bdiv%26gt%3B%E9%A6%96%E5%88%B7%E5%AE%8C%E6%88%90%26lt%3B%2Fdiv%26gt%3B%26lt%3B%2Fdiv%26gt%3B%22%20style%3D%22rounded%3D0%3BwhiteSpace%3Dwrap%3Bhtml%3D1%3BfillColor%3Dnone%3BstrokeColor%3Dnone%3B%22%20vertex%3D%221%22%20parent%3D%221%22%3E%3CmxGeometry%20x%3D%22470%22%20y%3D%22110%22%20width%3D%22120%22%20height%3D%2260%22%20as%3D%22geometry%22%2F%3E%3C%2FmxCell%3E%3C%2Froot%3E%3C%2FmxGraphModel%3E&lt;/span&gt;&lt;br&gt;&lt;div&gt;&lt;div style=&quot;text-align: start;&quot;&gt;&lt;p style=&quot;margin: 0px; font-variant-numeric: normal; font-variant-east-asian: normal; font-variant-alternates: normal; font-size-adjust: none; font-kerning: auto; font-optical-sizing: auto; font-feature-settings: normal; font-variation-settings: normal; font-variant-position: normal; font-stretch: normal; line-height: normal; font-family: Menlo; color: rgb(11, 79, 121); background-color: rgb(255, 255, 255);&quot; class=&quot;p1&quot;&gt;XYEXNearbyViewController&lt;/p&gt;&lt;p style=&quot;margin: 0px; font-variant-numeric: normal; font-variant-east-asian: normal; font-variant-alternates: normal; font-size-adjust: none; font-kerning: auto; font-optical-sizing: auto; font-feature-settings: normal; font-variation-settings: normal; font-variant-position: normal; font-stretch: normal; line-height: normal; font-family: Menlo; color: rgb(15, 104, 160); background-color: rgb(255, 255, 255);&quot; class=&quot;p1&quot;&gt;firstPerformPollingAction&lt;/p&gt;&lt;/div&gt;&lt;div&gt;开始请求定位&lt;/div&gt;&lt;/div&gt;" style="rounded=0;whiteSpace=wrap;html=1;fillColor=none;strokeColor=default;" vertex="1" parent="1">
          <mxGeometry x="470" y="200" width="200" height="60" as="geometry" />
        </mxCell>
        <mxCell id="cepE9wcwmbxno1sN5WoF-8" value="" style="endArrow=classic;html=1;rounded=0;" edge="1" parent="1">
          <mxGeometry width="50" height="50" relative="1" as="geometry">
            <mxPoint x="400" y="120" as="sourcePoint" />
            <mxPoint x="400" y="390" as="targetPoint" />
          </mxGeometry>
        </mxCell>
        <mxCell id="cepE9wcwmbxno1sN5WoF-40" style="edgeStyle=orthogonalEdgeStyle;rounded=0;orthogonalLoop=1;jettySize=auto;html=1;" edge="1" parent="1" source="cepE9wcwmbxno1sN5WoF-9" target="cepE9wcwmbxno1sN5WoF-10">
          <mxGeometry relative="1" as="geometry" />
        </mxCell>
        <mxCell id="cepE9wcwmbxno1sN5WoF-9" value="&lt;span style=&quot;color: rgba(0, 0, 0, 0); font-family: monospace; font-size: 0px; text-wrap-mode: nowrap;&quot;&gt;%3CmxGraphModel%3E%3Croot%3E%3CmxCell%20id%3D%220%22%2F%3E%3CmxCell%20id%3D%221%22%20parent%3D%220%22%2F%3E%3CmxCell%20id%3D%222%22%20value%3D%22%26lt%3Bspan%20style%3D%26quot%3Bbackground-color%3A%20rgb(255%2C%20255%2C%20255)%3B%20color%3A%20rgb(11%2C%2079%2C%20121)%3B%20font-family%3A%20Menlo%3B%20text-align%3A%20start%3B%26quot%3B%26gt%3BXYPHHomeTabbarController%26lt%3B%2Fspan%26gt%3B%26lt%3Bdiv%26gt%3B%26lt%3Bdiv%20style%3D%26quot%3Btext-align%3A%20start%3B%26quot%3B%26gt%3B%26lt%3Bp%20style%3D%26quot%3Bmargin%3A%200px%3B%20font-variant-numeric%3A%20normal%3B%20font-variant-east-asian%3A%20normal%3B%20font-variant-alternates%3A%20normal%3B%20font-size-adjust%3A%20none%3B%20font-kerning%3A%20auto%3B%20font-optical-sizing%3A%20auto%3B%20font-feature-settings%3A%20normal%3B%20font-variation-settings%3A%20normal%3B%20font-variant-position%3A%20normal%3B%20font-stretch%3A%20normal%3B%20line-height%3A%20normal%3B%20font-family%3A%20Menlo%3B%20color%3A%20rgb(15%2C%20104%2C%20160)%3B%20background-color%3A%20rgb(255%2C%20255%2C%20255)%3B%26quot%3B%20class%3D%26quot%3Bp1%26quot%3B%26gt%3BexploreFeedLoadHasFinished%26lt%3B%2Fp%26gt%3B%26lt%3B%2Fdiv%26gt%3B%26lt%3Bdiv%26gt%3B%E9%A6%96%E5%88%B7%E5%AE%8C%E6%88%90%26lt%3B%2Fdiv%26gt%3B%26lt%3B%2Fdiv%26gt%3B%22%20style%3D%22rounded%3D0%3BwhiteSpace%3Dwrap%3Bhtml%3D1%3BfillColor%3Dnone%3BstrokeColor%3Dnone%3B%22%20vertex%3D%221%22%20parent%3D%221%22%3E%3CmxGeometry%20x%3D%22470%22%20y%3D%22110%22%20width%3D%22120%22%20height%3D%2260%22%20as%3D%22geometry%22%2F%3E%3C%2FmxCell%3E%3C%2Froot%3E%3C%2FmxGraphModel%3E&lt;/span&gt;&lt;br&gt;&lt;div&gt;&lt;div style=&quot;&quot;&gt;&lt;p style=&quot;margin: 0px; font-variant-numeric: normal; font-variant-east-asian: normal; font-variant-alternates: normal; font-size-adjust: none; font-kerning: auto; font-optical-sizing: auto; font-feature-settings: normal; font-variation-settings: normal; font-variant-position: normal; font-stretch: normal; line-height: normal; font-family: Menlo; color: rgb(11, 79, 121); background-color: rgb(255, 255, 255);&quot; class=&quot;p1&quot;&gt;XYEXNearbyViewController&lt;/p&gt;&lt;p style=&quot;margin: 0px; font-variant-numeric: normal; font-variant-east-asian: normal; font-variant-alternates: normal; font-size-adjust: none; font-kerning: auto; font-optical-sizing: auto; font-feature-settings: normal; font-variation-settings: normal; font-variant-position: normal; font-stretch: normal; line-height: normal; font-family: Menlo; color: rgb(11, 79, 121); background-color: rgb(255, 255, 255);&quot; class=&quot;p1&quot;&gt;&lt;span style=&quot;color: rgb(50, 109, 116);&quot;&gt;requestHeader&lt;/span&gt;&lt;span style=&quot;background-color: rgb(251, 251, 251); color: rgba(0, 0, 0, 0); font-family: monospace; font-size: 0px; text-wrap-mode: nowrap;&quot;&gt;%3CmxGraphModel%3E%3Croot%3E%3CmxCell%20id%3D%220%22%2F%3E%3CmxCell%20id%3D%221%22%20parent%3D%220%22%2F%3E%3CmxCell%20id%3D%222%22%20value%3D%22%26lt%3Bspan%20style%3D%26quot%3Bcolor%3A%20rgba(0%2C%200%2C%200%2C%200)%3B%20font-family%3A%20monospace%3B%20font-size%3A%200px%3B%20text-align%3A%20start%3B%20text-wrap-mode%3A%20nowrap%3B%26quot%3B%26gt%3B%253CmxGraphModel%253E%253Croot%253E%253CmxCell%2520id%253D%25220%2522%252F%253E%253CmxCell%2520id%253D%25221%2522%2520parent%253D%25220%2522%252F%253E%253CmxCell%2520id%253D%25222%2522%2520value%253D%2522%2526lt%253Bspan%2520style%253D%2526quot%253Bbackground-color%253A%2520rgb(255%252C%2520255%252C%2520255)%253B%2520color%253A%2520rgb(11%252C%252079%252C%2520121)%253B%2520font-family%253A%2520Menlo%253B%2520text-align%253A%2520start%253B%2526quot%253B%2526gt%253BXYPHHomeTabbarController%2526lt%253B%252Fspan%2526gt%253B%2526lt%253Bdiv%2526gt%253B%2526lt%253Bdiv%2520style%253D%2526quot%253Btext-align%253A%2520start%253B%2526quot%253B%2526gt%253B%2526lt%253Bp%2520style%253D%2526quot%253Bmargin%253A%25200px%253B%2520font-variant-numeric%253A%2520normal%253B%2520font-variant-east-asian%253A%2520normal%253B%2520font-variant-alternates%253A%2520normal%253B%2520font-size-adjust%253A%2520none%253B%2520font-kerning%253A%2520auto%253B%2520font-optical-sizing%253A%2520auto%253B%2520font-feature-settings%253A%2520normal%253B%2520font-variation-settings%253A%2520normal%253B%2520font-variant-position%253A%2520normal%253B%2520font-stretch%253A%2520normal%253B%2520line-height%253A%2520normal%253B%2520font-family%253A%2520Menlo%253B%2520color%253A%2520rgb(15%252C%2520104%252C%2520160)%253B%2520background-color%253A%2520rgb(255%252C%2520255%252C%2520255)%253B%2526quot%253B%2520class%253D%2526quot%253Bp1%2526quot%253B%2526gt%253BexploreFeedLoadHasFinished%2526lt%253B%252Fp%2526gt%253B%2526lt%253B%252Fdiv%2526gt%253B%2526lt%253Bdiv%2526gt%253B%25E9%25A6%2596%25E5%2588%25B7%25E5%25AE%258C%25E6%2588%2590%2526lt%253B%252Fdiv%2526gt%253B%2526lt%253B%252Fdiv%2526gt%253B%2522%2520style%253D%2522rounded%253D0%253BwhiteSpace%253Dwrap%253Bhtml%253D1%253BfillColor%253Dnone%253BstrokeColor%253Dnone%253B%2522%2520vertex%253D%25221%2522%2520parent%253D%25221%2522%253E%253CmxGeometry%2520x%253D%2522470%2522%2520y%253D%2522110%2522%2520width%253D%2522120%2522%2520height%253D%252260%2522%2520as%253D%2522geometry%2522%252F%253E%253C%252FmxCell%253E%253C%252Froot%253E%253C%252FmxGraphModel%253E%26lt%3B%2Fspan%26gt%3B%26lt%3Bbr%26gt%3B%26lt%3Bdiv%26gt%3B%26lt%3Bdiv%20style%3D%26quot%3Btext-align%3A%20start%3B%26quot%3B%26gt%3B%26lt%3Bp%20style%3D%26quot%3Bmargin%3A%200px%3B%20font-variant-numeric%3A%20normal%3B%20font-variant-east-asian%3A%20normal%3B%20font-variant-alternates%3A%20normal%3B%20font-size-adjust%3A%20none%3B%20font-kerning%3A%20auto%3B%20font-optical-sizing%3A%20auto%3B%20font-feature-settings%3A%20normal%3B%20font-variation-settings%3A%20normal%3B%20font-variant-position%3A%20normal%3B%20font-stretch%3A%20normal%3B%20line-height%3A%20normal%3B%20font-family%3A%20Menlo%3B%20color%3A%20rgb(11%2C%2079%2C%20121)%3B%20background-color%3A%20rgb(255%2C%20255%2C%20255)%3B%26quot%3B%20class%3D%26quot%3Bp1%26quot%3B%26gt%3BXYEXNearbyViewController%26lt%3B%2Fp%26gt%3B%26lt%3Bp%20style%3D%26quot%3Bmargin%3A%200px%3B%20font-variant-numeric%3A%20normal%3B%20font-variant-east-asian%3A%20normal%3B%20font-variant-alternates%3A%20normal%3B%20font-size-adjust%3A%20none%3B%20font-kerning%3A%20auto%3B%20font-optical-sizing%3A%20auto%3B%20font-feature-settings%3A%20normal%3B%20font-variation-settings%3A%20normal%3B%20font-variant-position%3A%20normal%3B%20font-stretch%3A%20normal%3B%20line-height%3A%20normal%3B%20font-family%3A%20Menlo%3B%20color%3A%20rgb(15%2C%20104%2C%20160)%3B%20background-color%3A%20rgb(255%2C%20255%2C%20255)%3B%26quot%3B%20class%3D%26quot%3Bp1%26quot%3B%26gt%3BfirstPerformPollingAction%26lt%3B%2Fp%26gt%3B%26lt%3B%2Fdiv%26gt%3B%26lt%3Bdiv%26gt%3B%E5%BC%80%E5%A7%8B%E8%AF%B7%E6%B1%82%E5%AE%9A%E4%BD%8D%26lt%3B%2Fdiv%26gt%3B%26lt%3B%2Fdiv%26gt%3B%22%20style%3D%22rounded%3D0%3BwhiteSpace%3Dwrap%3Bhtml%3D1%3BfillColor%3Dnone%3BstrokeColor%3Dnone%3B%22%20vertex%3D%221%22%20parent%3D%221%22%3E%3CmxGeometry%20x%3D%22470%22%20y%3D%22200%22%20width%3D%22120%22%20height%3D%2260%22%20as%3D%22geometry%22%2F%3E%3C%2FmxCell%3E%3C%2Froot%3E%3C%2FmxGraphModel%3E&lt;/span&gt;&lt;/p&gt;&lt;/div&gt;&lt;div&gt;请求城市信息&lt;/div&gt;&lt;/div&gt;" style="rounded=0;whiteSpace=wrap;html=1;fillColor=none;strokeColor=default;fontStyle=2;align=center;" vertex="1" parent="1">
          <mxGeometry x="470" y="290" width="200" height="60" as="geometry" />
        </mxCell>
        <mxCell id="cepE9wcwmbxno1sN5WoF-10" value="&lt;span style=&quot;color: rgba(0, 0, 0, 0); font-family: monospace; font-size: 0px; text-wrap-mode: nowrap;&quot;&gt;%3CmxGraphModel%3E%3Croot%3E%3CmxCell%20id%3D%220%22%2F%3E%3CmxCell%20id%3D%221%22%20parent%3D%220%22%2F%3E%3CmxCell%20id%3D%222%22%20value%3D%22%26lt%3Bspan%20style%3D%26quot%3Bbackground-color%3A%20rgb(255%2C%20255%2C%20255)%3B%20color%3A%20rgb(11%2C%2079%2C%20121)%3B%20font-family%3A%20Menlo%3B%20text-align%3A%20start%3B%26quot%3B%26gt%3BXYPHHomeTabbarController%26lt%3B%2Fspan%26gt%3B%26lt%3Bdiv%26gt%3B%26lt%3Bdiv%20style%3D%26quot%3Btext-align%3A%20start%3B%26quot%3B%26gt%3B%26lt%3Bp%20style%3D%26quot%3Bmargin%3A%200px%3B%20font-variant-numeric%3A%20normal%3B%20font-variant-east-asian%3A%20normal%3B%20font-variant-alternates%3A%20normal%3B%20font-size-adjust%3A%20none%3B%20font-kerning%3A%20auto%3B%20font-optical-sizing%3A%20auto%3B%20font-feature-settings%3A%20normal%3B%20font-variation-settings%3A%20normal%3B%20font-variant-position%3A%20normal%3B%20font-stretch%3A%20normal%3B%20line-height%3A%20normal%3B%20font-family%3A%20Menlo%3B%20color%3A%20rgb(15%2C%20104%2C%20160)%3B%20background-color%3A%20rgb(255%2C%20255%2C%20255)%3B%26quot%3B%20class%3D%26quot%3Bp1%26quot%3B%26gt%3BexploreFeedLoadHasFinished%26lt%3B%2Fp%26gt%3B%26lt%3B%2Fdiv%26gt%3B%26lt%3Bdiv%26gt%3B%E9%A6%96%E5%88%B7%E5%AE%8C%E6%88%90%26lt%3B%2Fdiv%26gt%3B%26lt%3B%2Fdiv%26gt%3B%22%20style%3D%22rounded%3D0%3BwhiteSpace%3Dwrap%3Bhtml%3D1%3BfillColor%3Dnone%3BstrokeColor%3Dnone%3B%22%20vertex%3D%221%22%20parent%3D%221%22%3E%3CmxGeometry%20x%3D%22470%22%20y%3D%22110%22%20width%3D%22120%22%20height%3D%2260%22%20as%3D%22geometry%22%2F%3E%3C%2FmxCell%3E%3C%2Froot%3E%3C%2FmxGraphModel%3E&lt;/span&gt;&lt;br&gt;&lt;div&gt;&lt;div style=&quot;&quot;&gt;&lt;p style=&quot;margin: 0px; font-variant-numeric: normal; font-variant-east-asian: normal; font-variant-alternates: normal; font-size-adjust: none; font-kerning: auto; font-optical-sizing: auto; font-feature-settings: normal; font-variation-settings: normal; font-variant-position: normal; font-stretch: normal; line-height: normal; font-family: Menlo; color: rgb(11, 79, 121); background-color: rgb(255, 255, 255);&quot; class=&quot;p1&quot;&gt;&lt;span style=&quot;color: rgba(0, 0, 0, 0); font-family: monospace; font-size: 0px; font-style: normal; text-align: start; text-wrap-mode: nowrap; background-color: rgb(251, 251, 251);&quot;&gt;%3CmxGraphModel%3E%3Croot%3E%3CmxCell%20id%3D%220%22%2F%3E%3CmxCell%20id%3D%221%22%20parent%3D%220%22%2F%3E%3CmxCell%20id%3D%222%22%20value%3D%22%26lt%3Bspan%20style%3D%26quot%3Bcolor%3A%20rgba(0%2C%200%2C%200%2C%200)%3B%20font-family%3A%20monospace%3B%20font-size%3A%200px%3B%20text-wrap-mode%3A%20nowrap%3B%26quot%3B%26gt%3B%253CmxGraphModel%253E%253Croot%253E%253CmxCell%2520id%253D%25220%2522%252F%253E%253CmxCell%2520id%253D%25221%2522%2520parent%253D%25220%2522%252F%253E%253CmxCell%2520id%253D%25222%2522%2520value%253D%2522%2526lt%253Bspan%2520style%253D%2526quot%253Bbackground-color%253A%2520rgb(255%252C%2520255%252C%2520255)%253B%2520color%253A%2520rgb(11%252C%252079%252C%2520121)%253B%2520font-family%253A%2520Menlo%253B%2520text-align%253A%2520start%253B%2526quot%253B%2526gt%253BXYPHHomeTabbarController%2526lt%253B%252Fspan%2526gt%253B%2526lt%253Bdiv%2526gt%253B%2526lt%253Bdiv%2520style%253D%2526quot%253Btext-align%253A%2520start%253B%2526quot%253B%2526gt%253B%2526lt%253Bp%2520style%253D%2526quot%253Bmargin%253A%25200px%253B%2520font-variant-numeric%253A%2520normal%253B%2520font-variant-east-asian%253A%2520normal%253B%2520font-variant-alternates%253A%2520normal%253B%2520font-size-adjust%253A%2520none%253B%2520font-kerning%253A%2520auto%253B%2520font-optical-sizing%253A%2520auto%253B%2520font-feature-settings%253A%2520normal%253B%2520font-variation-settings%253A%2520normal%253B%2520font-variant-position%253A%2520normal%253B%2520font-stretch%253A%2520normal%253B%2520line-height%253A%2520normal%253B%2520font-family%253A%2520Menlo%253B%2520color%253A%2520rgb(15%252C%2520104%252C%2520160)%253B%2520background-color%253A%2520rgb(255%252C%2520255%252C%2520255)%253B%2526quot%253B%2520class%253D%2526quot%253Bp1%2526quot%253B%2526gt%253BexploreFeedLoadHasFinished%2526lt%253B%252Fp%2526gt%253B%2526lt%253B%252Fdiv%2526gt%253B%2526lt%253Bdiv%2526gt%253B%25E9%25A6%2596%25E5%2588%25B7%25E5%25AE%258C%25E6%2588%2590%2526lt%253B%252Fdiv%2526gt%253B%2526lt%253B%252Fdiv%2526gt%253B%2522%2520style%253D%2522rounded%253D0%253BwhiteSpace%253Dwrap%253Bhtml%253D1%253BfillColor%253Dnone%253BstrokeColor%253Dnone%253B%2522%2520vertex%253D%25221%2522%2520parent%253D%25221%2522%253E%253CmxGeometry%2520x%253D%2522470%2522%2520y%253D%2522110%2522%2520width%253D%2522120%2522%2520height%253D%252260%2522%2520as%253D%2522geometry%2522%252F%253E%253C%252FmxCell%253E%253C%252Froot%253E%253C%252FmxGraphModel%253E%26lt%3B%2Fspan%26gt%3B%26lt%3Bbr%26gt%3B%26lt%3Bdiv%26gt%3B%26lt%3Bdiv%20style%3D%26quot%3B%26quot%3B%26gt%3B%26lt%3Bp%20style%3D%26quot%3Bmargin%3A%200px%3B%20font-variant-numeric%3A%20normal%3B%20font-variant-east-asian%3A%20normal%3B%20font-variant-alternates%3A%20normal%3B%20font-size-adjust%3A%20none%3B%20font-kerning%3A%20auto%3B%20font-optical-sizing%3A%20auto%3B%20font-feature-settings%3A%20normal%3B%20font-variation-settings%3A%20normal%3B%20font-variant-position%3A%20normal%3B%20font-stretch%3A%20normal%3B%20line-height%3A%20normal%3B%20font-family%3A%20Menlo%3B%20color%3A%20rgb(11%2C%2079%2C%20121)%3B%20background-color%3A%20rgb(255%2C%20255%2C%20255)%3B%26quot%3B%20class%3D%26quot%3Bp1%26quot%3B%26gt%3BXYEXNearbyViewController%26lt%3B%2Fp%26gt%3B%26lt%3Bp%20style%3D%26quot%3Bmargin%3A%200px%3B%20font-variant-numeric%3A%20normal%3B%20font-variant-east-asian%3A%20normal%3B%20font-variant-alternates%3A%20normal%3B%20font-size-adjust%3A%20none%3B%20font-kerning%3A%20auto%3B%20font-optical-sizing%3A%20auto%3B%20font-feature-settings%3A%20normal%3B%20font-variation-settings%3A%20normal%3B%20font-variant-position%3A%20normal%3B%20font-stretch%3A%20normal%3B%20line-height%3A%20normal%3B%20font-family%3A%20Menlo%3B%20color%3A%20rgb(11%2C%2079%2C%20121)%3B%20background-color%3A%20rgb(255%2C%20255%2C%20255)%3B%26quot%3B%20class%3D%26quot%3Bp1%26quot%3B%26gt%3B%26lt%3Bspan%20style%3D%26quot%3Bcolor%3A%20rgb(50%2C%20109%2C%20116)%3B%26quot%3B%26gt%3BrequestHeader%26lt%3B%2Fspan%26gt%3B%26lt%3Bspan%20style%3D%26quot%3Bbackground-color%3A%20rgb(251%2C%20251%2C%20251)%3B%20color%3A%20rgba(0%2C%200%2C%200%2C%200)%3B%20font-family%3A%20monospace%3B%20font-size%3A%200px%3B%20text-wrap-mode%3A%20nowrap%3B%26quot%3B%26gt%3B%253CmxGraphModel%253E%253Croot%253E%253CmxCell%2520id%253D%25220%2522%252F%253E%253CmxCell%2520id%253D%25221%2522%2520parent%253D%25220%2522%252F%253E%253CmxCell%2520id%253D%25222%2522%2520value%253D%2522%2526lt%253Bspan%2520style%253D%2526quot%253Bcolor%253A%2520rgba(0%252C%25200%252C%25200%252C%25200)%253B%2520font-family%253A%2520monospace%253B%2520font-size%253A%25200px%253B%2520text-align%253A%2520start%253B%2520text-wrap-mode%253A%2520nowrap%253B%2526quot%253B%2526gt%253B%25253CmxGraphModel%25253E%25253Croot%25253E%25253CmxCell%252520id%25253D%2525220%252522%25252F%25253E%25253CmxCell%252520id%25253D%2525221%252522%252520parent%25253D%2525220%252522%25252F%25253E%25253CmxCell%252520id%25253D%2525222%252522%252520value%25253D%252522%252526lt%25253Bspan%252520style%25253D%252526quot%25253Bbackground-color%25253A%252520rgb(255%25252C%252520255%25252C%252520255)%25253B%252520color%25253A%252520rgb(11%25252C%25252079%25252C%252520121)%25253B%252520font-family%25253A%252520Menlo%25253B%252520text-align%25253A%252520start%25253B%252526quot%25253B%252526gt%25253BXYPHHomeTabbarController%252526lt%25253B%25252Fspan%252526gt%25253B%252526lt%25253Bdiv%252526gt%25253B%252526lt%25253Bdiv%252520style%25253D%252526quot%25253Btext-align%25253A%252520start%25253B%252526quot%25253B%252526gt%25253B%252526lt%25253Bp%252520style%25253D%252526quot%25253Bmargin%25253A%2525200px%25253B%252520font-variant-numeric%25253A%252520normal%25253B%252520font-variant-east-asian%25253A%252520normal%25253B%252520font-variant-alternates%25253A%252520normal%25253B%252520font-size-adjust%25253A%252520none%25253B%252520font-kerning%25253A%252520auto%25253B%252520font-optical-sizing%25253A%252520auto%25253B%252520font-feature-settings%25253A%252520normal%25253B%252520font-variation-settings%25253A%252520normal%25253B%252520font-variant-position%25253A%252520normal%25253B%252520font-stretch%25253A%252520normal%25253B%252520line-height%25253A%252520normal%25253B%252520font-family%25253A%252520Menlo%25253B%252520color%25253A%252520rgb(15%25252C%252520104%25252C%252520160)%25253B%252520background-color%25253A%252520rgb(255%25252C%252520255%25252C%252520255)%25253B%252526quot%25253B%252520class%25253D%252526quot%25253Bp1%252526quot%25253B%252526gt%25253BexploreFeedLoadHasFinished%252526lt%25253B%25252Fp%252526gt%25253B%252526lt%25253B%25252Fdiv%252526gt%25253B%252526lt%25253Bdiv%252526gt%25253B%2525E9%2525A6%252596%2525E5%252588%2525B7%2525E5%2525AE%25258C%2525E6%252588%252590%252526lt%25253B%25252Fdiv%252526gt%25253B%252526lt%25253B%25252Fdiv%252526gt%25253B%252522%252520style%25253D%252522rounded%25253D0%25253BwhiteSpace%25253Dwrap%25253Bhtml%25253D1%25253BfillColor%25253Dnone%25253BstrokeColor%25253Dnone%25253B%252522%252520vertex%25253D%2525221%252522%252520parent%25253D%2525221%252522%25253E%25253CmxGeometry%252520x%25253D%252522470%252522%252520y%25253D%252522110%252522%252520width%25253D%252522120%252522%252520height%25253D%25252260%252522%252520as%25253D%252522geometry%252522%25252F%25253E%25253C%25252FmxCell%25253E%25253C%25252Froot%25253E%25253C%25252FmxGraphModel%25253E%2526lt%253B%252Fspan%2526gt%253B%2526lt%253Bbr%2526gt%253B%2526lt%253Bdiv%2526gt%253B%2526lt%253Bdiv%2520style%253D%2526quot%253Btext-align%253A%2520start%253B%2526quot%253B%2526gt%253B%2526lt%253Bp%2520style%253D%2526quot%253Bmargin%253A%25200px%253B%2520font-variant-numeric%253A%2520normal%253B%2520font-variant-east-asian%253A%2520normal%253B%2520font-variant-alternates%253A%2520normal%253B%2520font-size-adjust%253A%2520none%253B%2520font-kerning%253A%2520auto%253B%2520font-optical-sizing%253A%2520auto%253B%2520font-feature-settings%253A%2520normal%253B%2520font-variation-settings%253A%2520normal%253B%2520font-variant-position%253A%2520normal%253B%2520font-stretch%253A%2520normal%253B%2520line-height%253A%2520normal%253B%2520font-family%253A%2520Menlo%253B%2520color%253A%2520rgb(11%252C%252079%252C%2520121)%253B%2520background-color%253A%2520rgb(255%252C%2520255%252C%2520255)%253B%2526quot%253B%2520class%253D%2526quot%253Bp1%2526quot%253B%2526gt%253BXYEXNearbyViewController%2526lt%253B%252Fp%2526gt%253B%2526lt%253Bp%2520style%253D%2526quot%253Bmargin%253A%25200px%253B%2520font-variant-numeric%253A%2520normal%253B%2520font-variant-east-asian%253A%2520normal%253B%2520font-variant-alternates%253A%2520normal%253B%2520font-size-adjust%253A%2520none%253B%2520font-kerning%253A%2520auto%253B%2520font-optical-sizing%253A%2520auto%253B%2520font-feature-settings%253A%2520normal%253B%2520font-variation-settings%253A%2520normal%253B%2520font-variant-position%253A%2520normal%253B%2520font-stretch%253A%2520normal%253B%2520line-height%253A%2520normal%253B%2520font-family%253A%2520Menlo%253B%2520color%253A%2520rgb(15%252C%2520104%252C%2520160)%253B%2520background-color%253A%2520rgb(255%252C%2520255%252C%2520255)%253B%2526quot%253B%2520class%253D%2526quot%253Bp1%2526quot%253B%2526gt%253BfirstPerformPollingAction%2526lt%253B%252Fp%2526gt%253B%2526lt%253B%252Fdiv%2526gt%253B%2526lt%253Bdiv%2526gt%253B%25E5%25BC%2580%25E5%25A7%258B%25E8%25AF%25B7%25E6%25B1%2582%25E5%25AE%259A%25E4%25BD%258D%2526lt%253B%252Fdiv%2526gt%253B%2526lt%253B%252Fdiv%2526gt%253B%2522%2520style%253D%2522rounded%253D0%253BwhiteSpace%253Dwrap%253Bhtml%253D1%253BfillColor%253Dnone%253BstrokeColor%253Dnone%253B%2522%2520vertex%253D%25221%2522%2520parent%253D%25221%2522%253E%253CmxGeometry%2520x%253D%2522470%2522%2520y%253D%2522200%2522%2520width%253D%2522120%2522%2520height%253D%252260%2522%2520as%253D%2522geometry%2522%252F%253E%253C%252FmxCell%253E%253C%252Froot%253E%253C%252FmxGraphModel%253E%26lt%3B%2Fspan%26gt%3B%26lt%3B%2Fp%26gt%3B%26lt%3B%2Fdiv%26gt%3B%26lt%3Bdiv%26gt%3B%E8%AF%B7%E6%B1%82%E5%9F%8E%E5%B8%82%E4%BF%A1%E6%81%AF%26lt%3B%2Fdiv%26gt%3B%26lt%3B%2Fdiv%26gt%3B%22%20style%3D%22rounded%3D0%3BwhiteSpace%3Dwrap%3Bhtml%3D1%3BfillColor%3Dnone%3BstrokeColor%3Dnone%3BfontStyle%3D2%3Balign%3Dcenter%3B%22%20vertex%3D%221%22%20parent%3D%221%22%3E%3CmxGeometry%20x%3D%22470%22%20y%3D%22280%22%20width%3D%22120%22%20height%3D%2260%22%20as%3D%22geometry%22%2F%3E%3C%2FmxCell%3E%3C%2Froot%3E%3C%2FmxGraphModel&lt;/span&gt;&lt;span style=&quot;font-style: normal; text-align: start;&quot;&gt;XYEXNearbyLocationManager&lt;/span&gt;&lt;/p&gt;&lt;p style=&quot;margin: 0px; font-variant-numeric: normal; font-variant-east-asian: normal; font-variant-alternates: normal; font-size-adjust: none; font-kerning: auto; font-optical-sizing: auto; font-feature-settings: normal; font-variation-settings: normal; font-variant-position: normal; font-stretch: normal; line-height: normal; font-family: Menlo; color: rgb(11, 79, 121); background-color: rgb(255, 255, 255);&quot; class=&quot;p1&quot;&gt;&lt;span style=&quot;color: rgba(0, 0, 0, 0); font-family: monospace; font-size: 0px; font-style: normal; text-align: start; text-wrap-mode: nowrap; background-color: rgb(251, 251, 251);&quot;&gt;%&lt;/span&gt;&lt;span style=&quot;color: rgb(15, 104, 160); font-style: normal; text-align: start;&quot;&gt;setTitleName&lt;/span&gt;&lt;span style=&quot;background-color: rgb(251, 251, 251); color: rgba(0, 0, 0, 0); font-family: monospace; font-size: 0px; text-wrap-mode: nowrap;&quot;&gt;%3CmxGraphModel%3E%3Croot%3E%3CmxCell%20id%3D%220%22%2F%3E%3CmxCell%20id%3D%221%22%20parent%3D%220%22%2F%3E%3CmxCell%20id%3D%222%22%20value%3D%22%26lt%3Bspan%20style%3D%26quot%3Bcolor%3A%20rgba(0%2C%200%2C%200%2C%200)%3B%20font-family%3A%20monospace%3B%20font-size%3A%200px%3B%20text-align%3A%20start%3B%20text-wrap-mode%3A%20nowrap%3B%26quot%3B%26gt%3B%253CmxGraphModel%253E%253Croot%253E%253CmxCell%2520id%253D%25220%2522%252F%253E%253CmxCell%2520id%253D%25221%2522%2520parent%253D%25220%2522%252F%253E%253CmxCell%2520id%253D%25222%2522%2520value%253D%2522%2526lt%253Bspan%2520style%253D%2526quot%253Bbackground-color%253A%2520rgb(255%252C%2520255%252C%2520255)%253B%2520color%253A%2520rgb(11%252C%252079%252C%2520121)%253B%2520font-family%253A%2520Menlo%253B%2520text-align%253A%2520start%253B%2526quot%253B%2526gt%253BXYPHHomeTabbarController%2526lt%253B%252Fspan%2526gt%253B%2526lt%253Bdiv%2526gt%253B%2526lt%253Bdiv%2520style%253D%2526quot%253Btext-align%253A%2520start%253B%2526quot%253B%2526gt%253B%2526lt%253Bp%2520style%253D%2526quot%253Bmargin%253A%25200px%253B%2520font-variant-numeric%253A%2520normal%253B%2520font-variant-east-asian%253A%2520normal%253B%2520font-variant-alternates%253A%2520normal%253B%2520font-size-adjust%253A%2520none%253B%2520font-kerning%253A%2520auto%253B%2520font-optical-sizing%253A%2520auto%253B%2520font-feature-settings%253A%2520normal%253B%2520font-variation-settings%253A%2520normal%253B%2520font-variant-position%253A%2520normal%253B%2520font-stretch%253A%2520normal%253B%2520line-height%253A%2520normal%253B%2520font-family%253A%2520Menlo%253B%2520color%253A%2520rgb(15%252C%2520104%252C%2520160)%253B%2520background-color%253A%2520rgb(255%252C%2520255%252C%2520255)%253B%2526quot%253B%2520class%253D%2526quot%253Bp1%2526quot%253B%2526gt%253BexploreFeedLoadHasFinished%2526lt%253B%252Fp%2526gt%253B%2526lt%253B%252Fdiv%2526gt%253B%2526lt%253Bdiv%2526gt%253B%25E9%25A6%2596%25E5%2588%25B7%25E5%25AE%258C%25E6%2588%2590%2526lt%253B%252Fdiv%2526gt%253B%2526lt%253B%252Fdiv%2526gt%253B%2522%2520style%253D%2522rounded%253D0%253BwhiteSpace%253Dwrap%253Bhtml%253D1%253BfillColor%253Dnone%253BstrokeColor%253Dnone%253B%2522%2520vertex%253D%25221%2522%2520parent%253D%25221%2522%253E%253CmxGeometry%2520x%253D%2522470%2522%2520y%253D%2522110%2522%2520width%253D%2522120%2522%2520height%253D%252260%2522%2520as%253D%2522geometry%2522%252F%253E%253C%252FmxCell%253E%253C%252Froot%253E%253C%252FmxGraphModel%253E%26lt%3B%2Fspan%26gt%3B%26lt%3Bbr%26gt%3B%26lt%3Bdiv%26gt%3B%26lt%3Bdiv%20style%3D%26quot%3Btext-align%3A%20start%3B%26quot%3B%26gt%3B%26lt%3Bp%20style%3D%26quot%3Bmargin%3A%200px%3B%20font-variant-numeric%3A%20normal%3B%20font-variant-east-asian%3A%20normal%3B%20font-variant-alternates%3A%20normal%3B%20font-size-adjust%3A%20none%3B%20font-kerning%3A%20auto%3B%20font-optical-sizing%3A%20auto%3B%20font-feature-settings%3A%20normal%3B%20font-variation-settings%3A%20normal%3B%20font-variant-position%3A%20normal%3B%20font-stretch%3A%20normal%3B%20line-height%3A%20normal%3B%20font-family%3A%20Menlo%3B%20color%3A%20rgb(11%2C%2079%2C%20121)%3B%20background-color%3A%20rgb(255%2C%20255%2C%20255)%3B%26quot%3B%20class%3D%26quot%3Bp1%26quot%3B%26gt%3BXYEXNearbyViewController%26lt%3B%2Fp%26gt%3B%26lt%3Bp%20style%3D%26quot%3Bmargin%3A%200px%3B%20font-variant-numeric%3A%20normal%3B%20font-variant-east-asian%3A%20normal%3B%20font-variant-alternates%3A%20normal%3B%20font-size-adjust%3A%20none%3B%20font-kerning%3A%20auto%3B%20font-optical-sizing%3A%20auto%3B%20font-feature-settings%3A%20normal%3B%20font-variation-settings%3A%20normal%3B%20font-variant-position%3A%20normal%3B%20font-stretch%3A%20normal%3B%20line-height%3A%20normal%3B%20font-family%3A%20Menlo%3B%20color%3A%20rgb(15%2C%20104%2C%20160)%3B%20background-color%3A%20rgb(255%2C%20255%2C%20255)%3B%26quot%3B%20class%3D%26quot%3Bp1%26quot%3B%26gt%3BfirstPerformPollingAction%26lt%3B%2Fp%26gt%3B%26lt%3B%2Fdiv%26gt%3B%26lt%3Bdiv%26gt%3B%E5%BC%80%E5%A7%8B%E8%AF%B7%E6%B1%82%E5%AE%9A%E4%BD%8D%26lt%3B%2Fdiv%26gt%3B%26lt%3B%2Fdiv%26gt%3B%22%20style%3D%22rounded%3D0%3BwhiteSpace%3Dwrap%3Bhtml%3D1%3BfillColor%3Dnone%3BstrokeColor%3Dnone%3B%22%20vertex%3D%221%22%20parent%3D%221%22%3E%3CmxGeometry%20x%3D%22470%22%20y%3D%22200%22%20width%3D%22120%22%20height%3D%2260%22%20as%3D%22geometry%22%2F%3E%3C%2FmxCell%3E%3C%2Froot%3E%3C%2FmxGraphModel%3E&lt;/span&gt;&lt;/p&gt;&lt;/div&gt;&lt;div&gt;存储城市信息&lt;/div&gt;&lt;/div&gt;" style="rounded=0;whiteSpace=wrap;html=1;fillColor=none;strokeColor=default;fontStyle=2;align=center;" vertex="1" parent="1">
          <mxGeometry x="470" y="380" width="200" height="80" as="geometry" />
        </mxCell>
        <mxCell id="cepE9wcwmbxno1sN5WoF-11" value="Actor" style="shape=umlActor;verticalLabelPosition=bottom;verticalAlign=top;html=1;outlineConnect=0;" vertex="1" parent="1">
          <mxGeometry x="830" y="200" width="30" height="60" as="geometry" />
        </mxCell>
        <mxCell id="cepE9wcwmbxno1sN5WoF-12" value="" style="endArrow=classic;html=1;rounded=0;" edge="1" parent="1">
          <mxGeometry width="50" height="50" relative="1" as="geometry">
            <mxPoint x="880" y="229.5" as="sourcePoint" />
            <mxPoint x="950" y="229.5" as="targetPoint" />
          </mxGeometry>
        </mxCell>
        <mxCell id="cepE9wcwmbxno1sN5WoF-13" value="&lt;div&gt;&lt;span style=&quot;background-color: initial;&quot;&gt;进入同城&lt;/span&gt;&lt;/div&gt;&lt;div&gt;&lt;span style=&quot;background-color: initial;&quot;&gt;（热&lt;/span&gt;&lt;span style=&quot;background-color: initial;&quot;&gt;启、点击、侧滑&lt;/span&gt;&lt;span style=&quot;background-color: initial;&quot;&gt;）&lt;/span&gt;&lt;/div&gt;" style="rounded=0;whiteSpace=wrap;html=1;" vertex="1" parent="1">
          <mxGeometry x="960" y="200" width="130" height="60" as="geometry" />
        </mxCell>
        <mxCell id="cepE9wcwmbxno1sN5WoF-36" style="edgeStyle=orthogonalEdgeStyle;rounded=0;orthogonalLoop=1;jettySize=auto;html=1;entryX=0.5;entryY=0;entryDx=0;entryDy=0;" edge="1" parent="1" source="cepE9wcwmbxno1sN5WoF-14" target="cepE9wcwmbxno1sN5WoF-15">
          <mxGeometry relative="1" as="geometry" />
        </mxCell>
        <mxCell id="cepE9wcwmbxno1sN5WoF-14" value="&lt;p class=&quot;p1&quot; style=&quot;margin: 0px; font-variant-numeric: normal; font-variant-east-asian: normal; font-variant-alternates: normal; font-size-adjust: none; font-kerning: auto; font-optical-sizing: auto; font-feature-settings: normal; font-variation-settings: normal; font-variant-position: normal; font-stretch: normal; line-height: normal; font-family: Menlo; color: rgb(11, 79, 121); background-color: rgb(255, 255, 255);&quot;&gt;XYEXNearbyViewController&lt;/p&gt;&lt;div&gt;&lt;div style=&quot;&quot;&gt;&lt;p class=&quot;p1&quot; style=&quot;margin: 0px; font-variant-numeric: normal; font-variant-east-asian: normal; font-variant-alternates: normal; font-size-adjust: none; font-kerning: auto; font-optical-sizing: auto; font-feature-settings: normal; font-variation-settings: normal; font-variant-position: normal; font-stretch: normal; line-height: normal; font-family: Menlo; color: rgb(15, 104, 160); background-color: rgb(255, 255, 255);&quot;&gt;childVCViewDidAppear&lt;/p&gt;&lt;p class=&quot;p1&quot; style=&quot;margin: 0px; font-variant-numeric: normal; font-variant-east-asian: normal; font-variant-alternates: normal; font-size-adjust: none; font-kerning: auto; font-optical-sizing: auto; font-feature-settings: normal; font-variation-settings: normal; font-variant-position: normal; font-stretch: normal; line-height: normal; font-family: Menlo; color: rgb(15, 104, 160); background-color: rgb(255, 255, 255);&quot;&gt;页面出现&lt;/p&gt;&lt;/div&gt;&lt;/div&gt;" style="rounded=0;whiteSpace=wrap;html=1;align=center;" vertex="1" parent="1">
          <mxGeometry x="1190" y="110" width="190" height="60" as="geometry" />
        </mxCell>
        <mxCell id="cepE9wcwmbxno1sN5WoF-33" style="edgeStyle=orthogonalEdgeStyle;rounded=0;orthogonalLoop=1;jettySize=auto;html=1;entryX=0.5;entryY=0;entryDx=0;entryDy=0;" edge="1" parent="1" source="cepE9wcwmbxno1sN5WoF-15" target="cepE9wcwmbxno1sN5WoF-17">
          <mxGeometry relative="1" as="geometry" />
        </mxCell>
        <mxCell id="cepE9wcwmbxno1sN5WoF-15" value="&lt;span style=&quot;color: rgba(0, 0, 0, 0); font-family: monospace; font-size: 0px; text-align: start; text-wrap-mode: nowrap;&quot;&gt;%3CmxGraphModel%3E%3Croot%3E%3CmxCell%20id%3D%220%22%2F%3E%3CmxCell%20id%3D%221%22%20parent%3D%220%22%2F%3E%3CmxCell%20id%3D%222%22%20value%3D%22%26lt%3Bspan%20style%3D%26quot%3Bbackground-color%3A%20rgb(255%2C%20255%2C%20255)%3B%20color%3A%20rgb(11%2C%2079%2C%20121)%3B%20font-family%3A%20Menlo%3B%20text-align%3A%20start%3B%26quot%3B%26gt%3BXYPHHomeTabbarController%26lt%3B%2Fspan%26gt%3B%26lt%3Bdiv%26gt%3B%26lt%3Bdiv%20style%3D%26quot%3Btext-align%3A%20start%3B%26quot%3B%26gt%3B%26lt%3Bp%20style%3D%26quot%3Bmargin%3A%200px%3B%20font-variant-numeric%3A%20normal%3B%20font-variant-east-asian%3A%20normal%3B%20font-variant-alternates%3A%20normal%3B%20font-size-adjust%3A%20none%3B%20font-kerning%3A%20auto%3B%20font-optical-sizing%3A%20auto%3B%20font-feature-settings%3A%20normal%3B%20font-variation-settings%3A%20normal%3B%20font-variant-position%3A%20normal%3B%20font-stretch%3A%20normal%3B%20line-height%3A%20normal%3B%20font-family%3A%20Menlo%3B%20color%3A%20rgb(15%2C%20104%2C%20160)%3B%20background-color%3A%20rgb(255%2C%20255%2C%20255)%3B%26quot%3B%20class%3D%26quot%3Bp1%26quot%3B%26gt%3BexploreFeedLoadHasFinished%26lt%3B%2Fp%26gt%3B%26lt%3B%2Fdiv%26gt%3B%26lt%3Bdiv%26gt%3B%E9%A6%96%E5%88%B7%E5%AE%8C%E6%88%90%26lt%3B%2Fdiv%26gt%3B%26lt%3B%2Fdiv%26gt%3B%22%20style%3D%22rounded%3D0%3BwhiteSpace%3Dwrap%3Bhtml%3D1%3BfillColor%3Dnone%3BstrokeColor%3Dnone%3B%22%20vertex%3D%221%22%20parent%3D%221%22%3E%3CmxGeometry%20x%3D%22470%22%20y%3D%22110%22%20width%3D%22120%22%20height%3D%2260%22%20as%3D%22geometry%22%2F%3E%3C%2FmxCell%3E%3C%2Froot%3E%3C%2FmxGraphModel%3E&lt;/span&gt;&lt;br&gt;&lt;div&gt;&lt;div style=&quot;text-align: start;&quot;&gt;&lt;p style=&quot;margin: 0px; font-variant-numeric: normal; font-variant-east-asian: normal; font-variant-alternates: normal; font-size-adjust: none; font-kerning: auto; font-optical-sizing: auto; font-feature-settings: normal; font-variation-settings: normal; font-variant-position: normal; font-stretch: normal; line-height: normal; font-family: Menlo; color: rgb(11, 79, 121); background-color: rgb(255, 255, 255);&quot; class=&quot;p1&quot;&gt;XYEXNearbyViewController&lt;/p&gt;&lt;p style=&quot;margin: 0px; font-variant-numeric: normal; font-variant-east-asian: normal; font-variant-alternates: normal; font-size-adjust: none; font-kerning: auto; font-optical-sizing: auto; font-feature-settings: normal; font-variation-settings: normal; font-variant-position: normal; font-stretch: normal; line-height: normal; font-family: Menlo; color: rgb(15, 104, 160); background-color: rgb(255, 255, 255);&quot; class=&quot;p1&quot;&gt;notFirstAppearAction&lt;/p&gt;&lt;/div&gt;&lt;div&gt;开始请求定位&lt;/div&gt;&lt;/div&gt;" style="rounded=0;whiteSpace=wrap;html=1;fillColor=none;strokeColor=default;" vertex="1" parent="1">
          <mxGeometry x="1190" y="200" width="190" height="60" as="geometry" />
        </mxCell>
        <mxCell id="cepE9wcwmbxno1sN5WoF-16" value="" style="endArrow=classic;html=1;rounded=0;" edge="1" parent="1">
          <mxGeometry width="50" height="50" relative="1" as="geometry">
            <mxPoint x="1120" y="120" as="sourcePoint" />
            <mxPoint x="1120" y="620" as="targetPoint" />
          </mxGeometry>
        </mxCell>
        <mxCell id="cepE9wcwmbxno1sN5WoF-31" value="" style="edgeStyle=orthogonalEdgeStyle;rounded=0;orthogonalLoop=1;jettySize=auto;html=1;" edge="1" parent="1" source="cepE9wcwmbxno1sN5WoF-17" target="cepE9wcwmbxno1sN5WoF-18">
          <mxGeometry relative="1" as="geometry" />
        </mxCell>
        <mxCell id="cepE9wcwmbxno1sN5WoF-17" value="&lt;span style=&quot;color: rgba(0, 0, 0, 0); font-family: monospace; font-size: 0px; text-wrap-mode: nowrap;&quot;&gt;%3CmxGraphModel%3E%3Croot%3E%3CmxCell%20id%3D%220%22%2F%3E%3CmxCell%20id%3D%221%22%20parent%3D%220%22%2F%3E%3CmxCell%20id%3D%222%22%20value%3D%22%26lt%3Bspan%20style%3D%26quot%3Bbackground-color%3A%20rgb(255%2C%20255%2C%20255)%3B%20color%3A%20rgb(11%2C%2079%2C%20121)%3B%20font-family%3A%20Menlo%3B%20text-align%3A%20start%3B%26quot%3B%26gt%3BXYPHHomeTabbarController%26lt%3B%2Fspan%26gt%3B%26lt%3Bdiv%26gt%3B%26lt%3Bdiv%20style%3D%26quot%3Btext-align%3A%20start%3B%26quot%3B%26gt%3B%26lt%3Bp%20style%3D%26quot%3Bmargin%3A%200px%3B%20font-variant-numeric%3A%20normal%3B%20font-variant-east-asian%3A%20normal%3B%20font-variant-alternates%3A%20normal%3B%20font-size-adjust%3A%20none%3B%20font-kerning%3A%20auto%3B%20font-optical-sizing%3A%20auto%3B%20font-feature-settings%3A%20normal%3B%20font-variation-settings%3A%20normal%3B%20font-variant-position%3A%20normal%3B%20font-stretch%3A%20normal%3B%20line-height%3A%20normal%3B%20font-family%3A%20Menlo%3B%20color%3A%20rgb(15%2C%20104%2C%20160)%3B%20background-color%3A%20rgb(255%2C%20255%2C%20255)%3B%26quot%3B%20class%3D%26quot%3Bp1%26quot%3B%26gt%3BexploreFeedLoadHasFinished%26lt%3B%2Fp%26gt%3B%26lt%3B%2Fdiv%26gt%3B%26lt%3Bdiv%26gt%3B%E9%A6%96%E5%88%B7%E5%AE%8C%E6%88%90%26lt%3B%2Fdiv%26gt%3B%26lt%3B%2Fdiv%26gt%3B%22%20style%3D%22rounded%3D0%3BwhiteSpace%3Dwrap%3Bhtml%3D1%3BfillColor%3Dnone%3BstrokeColor%3Dnone%3B%22%20vertex%3D%221%22%20parent%3D%221%22%3E%3CmxGeometry%20x%3D%22470%22%20y%3D%22110%22%20width%3D%22120%22%20height%3D%2260%22%20as%3D%22geometry%22%2F%3E%3C%2FmxCell%3E%3C%2Froot%3E%3C%2FmxGraphModel%3E&lt;/span&gt;&lt;br&gt;&lt;div&gt;&lt;div style=&quot;&quot;&gt;&lt;p style=&quot;margin: 0px; font-variant-numeric: normal; font-variant-east-asian: normal; font-variant-alternates: normal; font-size-adjust: none; font-kerning: auto; font-optical-sizing: auto; font-feature-settings: normal; font-variation-settings: normal; font-variant-position: normal; font-stretch: normal; line-height: normal; font-family: Menlo; color: rgb(11, 79, 121); background-color: rgb(255, 255, 255);&quot; class=&quot;p1&quot;&gt;XYEXNearbyViewController&lt;/p&gt;&lt;p style=&quot;margin: 0px; font-variant-numeric: normal; font-variant-east-asian: normal; font-variant-alternates: normal; font-size-adjust: none; font-kerning: auto; font-optical-sizing: auto; font-feature-settings: normal; font-variation-settings: normal; font-variant-position: normal; font-stretch: normal; line-height: normal; font-family: Menlo; color: rgb(11, 79, 121); background-color: rgb(255, 255, 255);&quot; class=&quot;p1&quot;&gt;&lt;span style=&quot;color: rgb(50, 109, 116); font-style: normal; text-align: start;&quot;&gt;locationShouldAuthorized&lt;/span&gt;&lt;span style=&quot;background-color: rgb(251, 251, 251); color: rgba(0, 0, 0, 0); font-family: monospace; font-size: 0px; text-wrap-mode: nowrap;&quot;&gt;%3CmxGraphModel%3E%3Croot%3E%3CmxCell%20id%3D%220%22%2F%3E%3CmxCell%20id%3D%221%22%20parent%3D%220%22%2F%3E%3CmxCell%20id%3D%222%22%20value%3D%22%26lt%3Bspan%20style%3D%26quot%3Bcolor%3A%20rgba(0%2C%200%2C%200%2C%200)%3B%20font-family%3A%20monospace%3B%20font-size%3A%200px%3B%20text-align%3A%20start%3B%20text-wrap-mode%3A%20nowrap%3B%26quot%3B%26gt%3B%253CmxGraphModel%253E%253Croot%253E%253CmxCell%2520id%253D%25220%2522%252F%253E%253CmxCell%2520id%253D%25221%2522%2520parent%253D%25220%2522%252F%253E%253CmxCell%2520id%253D%25222%2522%2520value%253D%2522%2526lt%253Bspan%2520style%253D%2526quot%253Bbackground-color%253A%2520rgb(255%252C%2520255%252C%2520255)%253B%2520color%253A%2520rgb(11%252C%252079%252C%2520121)%253B%2520font-family%253A%2520Menlo%253B%2520text-align%253A%2520start%253B%2526quot%253B%2526gt%253BXYPHHomeTabbarController%2526lt%253B%252Fspan%2526gt%253B%2526lt%253Bdiv%2526gt%253B%2526lt%253Bdiv%2520style%253D%2526quot%253Btext-align%253A%2520start%253B%2526quot%253B%2526gt%253B%2526lt%253Bp%2520style%253D%2526quot%253Bmargin%253A%25200px%253B%2520font-variant-numeric%253A%2520normal%253B%2520font-variant-east-asian%253A%2520normal%253B%2520font-variant-alternates%253A%2520normal%253B%2520font-size-adjust%253A%2520none%253B%2520font-kerning%253A%2520auto%253B%2520font-optical-sizing%253A%2520auto%253B%2520font-feature-settings%253A%2520normal%253B%2520font-variation-settings%253A%2520normal%253B%2520font-variant-position%253A%2520normal%253B%2520font-stretch%253A%2520normal%253B%2520line-height%253A%2520normal%253B%2520font-family%253A%2520Menlo%253B%2520color%253A%2520rgb(15%252C%2520104%252C%2520160)%253B%2520background-color%253A%2520rgb(255%252C%2520255%252C%2520255)%253B%2526quot%253B%2520class%253D%2526quot%253Bp1%2526quot%253B%2526gt%253BexploreFeedLoadHasFinished%2526lt%253B%252Fp%2526gt%253B%2526lt%253B%252Fdiv%2526gt%253B%2526lt%253Bdiv%2526gt%253B%25E9%25A6%2596%25E5%2588%25B7%25E5%25AE%258C%25E6%2588%2590%2526lt%253B%252Fdiv%2526gt%253B%2526lt%253B%252Fdiv%2526gt%253B%2522%2520style%253D%2522rounded%253D0%253BwhiteSpace%253Dwrap%253Bhtml%253D1%253BfillColor%253Dnone%253BstrokeColor%253Dnone%253B%2522%2520vertex%253D%25221%2522%2520parent%253D%25221%2522%253E%253CmxGeometry%2520x%253D%2522470%2522%2520y%253D%2522110%2522%2520width%253D%2522120%2522%2520height%253D%252260%2522%2520as%253D%2522geometry%2522%252F%253E%253C%252FmxCell%253E%253C%252Froot%253E%253C%252FmxGraphModel%253E%26lt%3B%2Fspan%26gt%3B%26lt%3Bbr%26gt%3B%26lt%3Bdiv%26gt%3B%26lt%3Bdiv%20style%3D%26quot%3Btext-align%3A%20start%3B%26quot%3B%26gt%3B%26lt%3Bp%20style%3D%26quot%3Bmargin%3A%200px%3B%20font-variant-numeric%3A%20normal%3B%20font-variant-east-asian%3A%20normal%3B%20font-variant-alternates%3A%20normal%3B%20font-size-adjust%3A%20none%3B%20font-kerning%3A%20auto%3B%20font-optical-sizing%3A%20auto%3B%20font-feature-settings%3A%20normal%3B%20font-variation-settings%3A%20normal%3B%20font-variant-position%3A%20normal%3B%20font-stretch%3A%20normal%3B%20line-height%3A%20normal%3B%20font-family%3A%20Menlo%3B%20color%3A%20rgb(11%2C%2079%2C%20121)%3B%20background-color%3A%20rgb(255%2C%20255%2C%20255)%3B%26quot%3B%20class%3D%26quot%3Bp1%26quot%3B%26gt%3BXYEXNearbyViewController%26lt%3B%2Fp%26gt%3B%26lt%3Bp%20style%3D%26quot%3Bmargin%3A%200px%3B%20font-variant-numeric%3A%20normal%3B%20font-variant-east-asian%3A%20normal%3B%20font-variant-alternates%3A%20normal%3B%20font-size-adjust%3A%20none%3B%20font-kerning%3A%20auto%3B%20font-optical-sizing%3A%20auto%3B%20font-feature-settings%3A%20normal%3B%20font-variation-settings%3A%20normal%3B%20font-variant-position%3A%20normal%3B%20font-stretch%3A%20normal%3B%20line-height%3A%20normal%3B%20font-family%3A%20Menlo%3B%20color%3A%20rgb(15%2C%20104%2C%20160)%3B%20background-color%3A%20rgb(255%2C%20255%2C%20255)%3B%26quot%3B%20class%3D%26quot%3Bp1%26quot%3B%26gt%3BfirstPerformPollingAction%26lt%3B%2Fp%26gt%3B%26lt%3B%2Fdiv%26gt%3B%26lt%3Bdiv%26gt%3B%E5%BC%80%E5%A7%8B%E8%AF%B7%E6%B1%82%E5%AE%9A%E4%BD%8D%26lt%3B%2Fdiv%26gt%3B%26lt%3B%2Fdiv%26gt%3B%22%20style%3D%22rounded%3D0%3BwhiteSpace%3Dwrap%3Bhtml%3D1%3BfillColor%3Dnone%3BstrokeColor%3Dnone%3B%22%20vertex%3D%221%22%20parent%3D%221%22%3E%3CmxGeometry%20x%3D%22470%22%20y%3D%22200%22%20width%3D%22120%22%20height%3D%2260%22%20as%3D%22geometry%22%2F%3E%3C%2FmxCell%3E%3C%2Froot%3E%3C%2FmxGraphModel%3E&lt;/span&gt;&lt;/p&gt;&lt;/div&gt;&lt;div&gt;定位鉴权&lt;/div&gt;&lt;/div&gt;" style="rounded=0;whiteSpace=wrap;html=1;fillColor=none;strokeColor=default;fontStyle=2;align=center;" vertex="1" parent="1">
          <mxGeometry x="1190" y="280" width="190" height="60" as="geometry" />
        </mxCell>
        <mxCell id="cepE9wcwmbxno1sN5WoF-18" value="&lt;span style=&quot;color: rgba(0, 0, 0, 0); font-family: monospace; font-size: 0px; text-wrap-mode: nowrap;&quot;&gt;%3CmxGraphModel%3E%3Croot%3E%3CmxCell%20id%3D%220%22%2F%3E%3CmxCell%20id%3D%221%22%20parent%3D%220%22%2F%3E%3CmxCell%20id%3D%222%22%20value%3D%22%26lt%3Bspan%20style%3D%26quot%3Bbackground-color%3A%20rgb(255%2C%20255%2C%20255)%3B%20color%3A%20rgb(11%2C%2079%2C%20121)%3B%20font-family%3A%20Menlo%3B%20text-align%3A%20start%3B%26quot%3B%26gt%3BXYPHHomeTabbarController%26lt%3B%2Fspan%26gt%3B%26lt%3Bdiv%26gt%3B%26lt%3Bdiv%20style%3D%26quot%3Btext-align%3A%20start%3B%26quot%3B%26gt%3B%26lt%3Bp%20style%3D%26quot%3Bmargin%3A%200px%3B%20font-variant-numeric%3A%20normal%3B%20font-variant-east-asian%3A%20normal%3B%20font-variant-alternates%3A%20normal%3B%20font-size-adjust%3A%20none%3B%20font-kerning%3A%20auto%3B%20font-optical-sizing%3A%20auto%3B%20font-feature-settings%3A%20normal%3B%20font-variation-settings%3A%20normal%3B%20font-variant-position%3A%20normal%3B%20font-stretch%3A%20normal%3B%20line-height%3A%20normal%3B%20font-family%3A%20Menlo%3B%20color%3A%20rgb(15%2C%20104%2C%20160)%3B%20background-color%3A%20rgb(255%2C%20255%2C%20255)%3B%26quot%3B%20class%3D%26quot%3Bp1%26quot%3B%26gt%3BexploreFeedLoadHasFinished%26lt%3B%2Fp%26gt%3B%26lt%3B%2Fdiv%26gt%3B%26lt%3Bdiv%26gt%3B%E9%A6%96%E5%88%B7%E5%AE%8C%E6%88%90%26lt%3B%2Fdiv%26gt%3B%26lt%3B%2Fdiv%26gt%3B%22%20style%3D%22rounded%3D0%3BwhiteSpace%3Dwrap%3Bhtml%3D1%3BfillColor%3Dnone%3BstrokeColor%3Dnone%3B%22%20vertex%3D%221%22%20parent%3D%221%22%3E%3CmxGeometry%20x%3D%22470%22%20y%3D%22110%22%20width%3D%22120%22%20height%3D%2260%22%20as%3D%22geometry%22%2F%3E%3C%2FmxCell%3E%3C%2Froot%3E%3C%2FmxGraphModel%3E&lt;/span&gt;&lt;br&gt;&lt;div&gt;&lt;div style=&quot;&quot;&gt;&lt;p style=&quot;margin: 0px; font-variant-numeric: normal; font-variant-east-asian: normal; font-variant-alternates: normal; font-size-adjust: none; font-kerning: auto; font-optical-sizing: auto; font-feature-settings: normal; font-variation-settings: normal; font-variant-position: normal; font-stretch: normal; line-height: normal; font-family: Menlo; color: rgb(11, 79, 121); background-color: rgb(255, 255, 255);&quot; class=&quot;p1&quot;&gt;&lt;span style=&quot;color: rgba(0, 0, 0, 0); font-family: monospace; font-size: 0px; font-style: normal; text-align: start; text-wrap-mode: nowrap; background-color: rgb(251, 251, 251);&quot;&gt;%3CmxGraphModel%3E%3Croot%3E%3CmxCell%20id%3D%220%22%2F%3E%3CmxCell%20id%3D%221%22%20parent%3D%220%22%2F%3E%3CmxCell%20id%3D%222%22%20value%3D%22%26lt%3Bspan%20style%3D%26quot%3Bcolor%3A%20rgba(0%2C%200%2C%200%2C%200)%3B%20font-family%3A%20monospace%3B%20font-size%3A%200px%3B%20text-wrap-mode%3A%20nowrap%3B%26quot%3B%26gt%3B%253CmxGraphModel%253E%253Croot%253E%253CmxCell%2520id%253D%25220%2522%252F%253E%253CmxCell%2520id%253D%25221%2522%2520parent%253D%25220%2522%252F%253E%253CmxCell%2520id%253D%25222%2522%2520value%253D%2522%2526lt%253Bspan%2520style%253D%2526quot%253Bbackground-color%253A%2520rgb(255%252C%2520255%252C%2520255)%253B%2520color%253A%2520rgb(11%252C%252079%252C%2520121)%253B%2520font-family%253A%2520Menlo%253B%2520text-align%253A%2520start%253B%2526quot%253B%2526gt%253BXYPHHomeTabbarController%2526lt%253B%252Fspan%2526gt%253B%2526lt%253Bdiv%2526gt%253B%2526lt%253Bdiv%2520style%253D%2526quot%253Btext-align%253A%2520start%253B%2526quot%253B%2526gt%253B%2526lt%253Bp%2520style%253D%2526quot%253Bmargin%253A%25200px%253B%2520font-variant-numeric%253A%2520normal%253B%2520font-variant-east-asian%253A%2520normal%253B%2520font-variant-alternates%253A%2520normal%253B%2520font-size-adjust%253A%2520none%253B%2520font-kerning%253A%2520auto%253B%2520font-optical-sizing%253A%2520auto%253B%2520font-feature-settings%253A%2520normal%253B%2520font-variation-settings%253A%2520normal%253B%2520font-variant-position%253A%2520normal%253B%2520font-stretch%253A%2520normal%253B%2520line-height%253A%2520normal%253B%2520font-family%253A%2520Menlo%253B%2520color%253A%2520rgb(15%252C%2520104%252C%2520160)%253B%2520background-color%253A%2520rgb(255%252C%2520255%252C%2520255)%253B%2526quot%253B%2520class%253D%2526quot%253Bp1%2526quot%253B%2526gt%253BexploreFeedLoadHasFinished%2526lt%253B%252Fp%2526gt%253B%2526lt%253B%252Fdiv%2526gt%253B%2526lt%253Bdiv%2526gt%253B%25E9%25A6%2596%25E5%2588%25B7%25E5%25AE%258C%25E6%2588%2590%2526lt%253B%252Fdiv%2526gt%253B%2526lt%253B%252Fdiv%2526gt%253B%2522%2520style%253D%2522rounded%253D0%253BwhiteSpace%253Dwrap%253Bhtml%253D1%253BfillColor%253Dnone%253BstrokeColor%253Dnone%253B%2522%2520vertex%253D%25221%2522%2520parent%253D%25221%2522%253E%253CmxGeometry%2520x%253D%2522470%2522%2520y%253D%2522110%2522%2520width%253D%2522120%2522%2520height%253D%252260%2522%2520as%253D%2522geometry%2522%252F%253E%253C%252FmxCell%253E%253C%252Froot%253E%253C%252FmxGraphModel%253E%26lt%3B%2Fspan%26gt%3B%26lt%3Bbr%26gt%3B%26lt%3Bdiv%26gt%3B%26lt%3Bdiv%20style%3D%26quot%3B%26quot%3B%26gt%3B%26lt%3Bp%20style%3D%26quot%3Bmargin%3A%200px%3B%20font-variant-numeric%3A%20normal%3B%20font-variant-east-asian%3A%20normal%3B%20font-variant-alternates%3A%20normal%3B%20font-size-adjust%3A%20none%3B%20font-kerning%3A%20auto%3B%20font-optical-sizing%3A%20auto%3B%20font-feature-settings%3A%20normal%3B%20font-variation-settings%3A%20normal%3B%20font-variant-position%3A%20normal%3B%20font-stretch%3A%20normal%3B%20line-height%3A%20normal%3B%20font-family%3A%20Menlo%3B%20color%3A%20rgb(11%2C%2079%2C%20121)%3B%20background-color%3A%20rgb(255%2C%20255%2C%20255)%3B%26quot%3B%20class%3D%26quot%3Bp1%26quot%3B%26gt%3BXYEXNearbyViewController%26lt%3B%2Fp%26gt%3B%26lt%3Bp%20style%3D%26quot%3Bmargin%3A%200px%3B%20font-variant-numeric%3A%20normal%3B%20font-variant-east-asian%3A%20normal%3B%20font-variant-alternates%3A%20normal%3B%20font-size-adjust%3A%20none%3B%20font-kerning%3A%20auto%3B%20font-optical-sizing%3A%20auto%3B%20font-feature-settings%3A%20normal%3B%20font-variation-settings%3A%20normal%3B%20font-variant-position%3A%20normal%3B%20font-stretch%3A%20normal%3B%20line-height%3A%20normal%3B%20font-family%3A%20Menlo%3B%20color%3A%20rgb(11%2C%2079%2C%20121)%3B%20background-color%3A%20rgb(255%2C%20255%2C%20255)%3B%26quot%3B%20class%3D%26quot%3Bp1%26quot%3B%26gt%3B%26lt%3Bspan%20style%3D%26quot%3Bcolor%3A%20rgb(50%2C%20109%2C%20116)%3B%26quot%3B%26gt%3BrequestHeader%26lt%3B%2Fspan%26gt%3B%26lt%3Bspan%20style%3D%26quot%3Bbackground-color%3A%20rgb(251%2C%20251%2C%20251)%3B%20color%3A%20rgba(0%2C%200%2C%200%2C%200)%3B%20font-family%3A%20monospace%3B%20font-size%3A%200px%3B%20text-wrap-mode%3A%20nowrap%3B%26quot%3B%26gt%3B%253CmxGraphModel%253E%253Croot%253E%253CmxCell%2520id%253D%25220%2522%252F%253E%253CmxCell%2520id%253D%25221%2522%2520parent%253D%25220%2522%252F%253E%253CmxCell%2520id%253D%25222%2522%2520value%253D%2522%2526lt%253Bspan%2520style%253D%2526quot%253Bcolor%253A%2520rgba(0%252C%25200%252C%25200%252C%25200)%253B%2520font-family%253A%2520monospace%253B%2520font-size%253A%25200px%253B%2520text-align%253A%2520start%253B%2520text-wrap-mode%253A%2520nowrap%253B%2526quot%253B%2526gt%253B%25253CmxGraphModel%25253E%25253Croot%25253E%25253CmxCell%252520id%25253D%2525220%252522%25252F%25253E%25253CmxCell%252520id%25253D%2525221%252522%252520parent%25253D%2525220%252522%25252F%25253E%25253CmxCell%252520id%25253D%2525222%252522%252520value%25253D%252522%252526lt%25253Bspan%252520style%25253D%252526quot%25253Bbackground-color%25253A%252520rgb(255%25252C%252520255%25252C%252520255)%25253B%252520color%25253A%252520rgb(11%25252C%25252079%25252C%252520121)%25253B%252520font-family%25253A%252520Menlo%25253B%252520text-align%25253A%252520start%25253B%252526quot%25253B%252526gt%25253BXYPHHomeTabbarController%252526lt%25253B%25252Fspan%252526gt%25253B%252526lt%25253Bdiv%252526gt%25253B%252526lt%25253Bdiv%252520style%25253D%252526quot%25253Btext-align%25253A%252520start%25253B%252526quot%25253B%252526gt%25253B%252526lt%25253Bp%252520style%25253D%252526quot%25253Bmargin%25253A%2525200px%25253B%252520font-variant-numeric%25253A%252520normal%25253B%252520font-variant-east-asian%25253A%252520normal%25253B%252520font-variant-alternates%25253A%252520normal%25253B%252520font-size-adjust%25253A%252520none%25253B%252520font-kerning%25253A%252520auto%25253B%252520font-optical-sizing%25253A%252520auto%25253B%252520font-feature-settings%25253A%252520normal%25253B%252520font-variation-settings%25253A%252520normal%25253B%252520font-variant-position%25253A%252520normal%25253B%252520font-stretch%25253A%252520normal%25253B%252520line-height%25253A%252520normal%25253B%252520font-family%25253A%252520Menlo%25253B%252520color%25253A%252520rgb(15%25252C%252520104%25252C%252520160)%25253B%252520background-color%25253A%252520rgb(255%25252C%252520255%25252C%252520255)%25253B%252526quot%25253B%252520class%25253D%252526quot%25253Bp1%252526quot%25253B%252526gt%25253BexploreFeedLoadHasFinished%252526lt%25253B%25252Fp%252526gt%25253B%252526lt%25253B%25252Fdiv%252526gt%25253B%252526lt%25253Bdiv%252526gt%25253B%2525E9%2525A6%252596%2525E5%252588%2525B7%2525E5%2525AE%25258C%2525E6%252588%252590%252526lt%25253B%25252Fdiv%252526gt%25253B%252526lt%25253B%25252Fdiv%252526gt%25253B%252522%252520style%25253D%252522rounded%25253D0%25253BwhiteSpace%25253Dwrap%25253Bhtml%25253D1%25253BfillColor%25253Dnone%25253BstrokeColor%25253Dnone%25253B%252522%252520vertex%25253D%2525221%252522%252520parent%25253D%2525221%252522%25253E%25253CmxGeometry%252520x%25253D%252522470%252522%252520y%25253D%252522110%252522%252520width%25253D%252522120%252522%252520height%25253D%25252260%252522%252520as%25253D%252522geometry%252522%25252F%25253E%25253C%25252FmxCell%25253E%25253C%25252Froot%25253E%25253C%25252FmxGraphModel%25253E%2526lt%253B%252Fspan%2526gt%253B%2526lt%253Bbr%2526gt%253B%2526lt%253Bdiv%2526gt%253B%2526lt%253Bdiv%2520style%253D%2526quot%253Btext-align%253A%2520start%253B%2526quot%253B%2526gt%253B%2526lt%253Bp%2520style%253D%2526quot%253Bmargin%253A%25200px%253B%2520font-variant-numeric%253A%2520normal%253B%2520font-variant-east-asian%253A%2520normal%253B%2520font-variant-alternates%253A%2520normal%253B%2520font-size-adjust%253A%2520none%253B%2520font-kerning%253A%2520auto%253B%2520font-optical-sizing%253A%2520auto%253B%2520font-feature-settings%253A%2520normal%253B%2520font-variation-settings%253A%2520normal%253B%2520font-variant-position%253A%2520normal%253B%2520font-stretch%253A%2520normal%253B%2520line-height%253A%2520normal%253B%2520font-family%253A%2520Menlo%253B%2520color%253A%2520rgb(11%252C%252079%252C%2520121)%253B%2520background-color%253A%2520rgb(255%252C%2520255%252C%2520255)%253B%2526quot%253B%2520class%253D%2526quot%253Bp1%2526quot%253B%2526gt%253BXYEXNearbyViewController%2526lt%253B%252Fp%2526gt%253B%2526lt%253Bp%2520style%253D%2526quot%253Bmargin%253A%25200px%253B%2520font-variant-numeric%253A%2520normal%253B%2520font-variant-east-asian%253A%2520normal%253B%2520font-variant-alternates%253A%2520normal%253B%2520font-size-adjust%253A%2520none%253B%2520font-kerning%253A%2520auto%253B%2520font-optical-sizing%253A%2520auto%253B%2520font-feature-settings%253A%2520normal%253B%2520font-variation-settings%253A%2520normal%253B%2520font-variant-position%253A%2520normal%253B%2520font-stretch%253A%2520normal%253B%2520line-height%253A%2520normal%253B%2520font-family%253A%2520Menlo%253B%2520color%253A%2520rgb(15%252C%2520104%252C%2520160)%253B%2520background-color%253A%2520rgb(255%252C%2520255%252C%2520255)%253B%2526quot%253B%2520class%253D%2526quot%253Bp1%2526quot%253B%2526gt%253BfirstPerformPollingAction%2526lt%253B%252Fp%2526gt%253B%2526lt%253B%252Fdiv%2526gt%253B%2526lt%253Bdiv%2526gt%253B%25E5%25BC%2580%25E5%25A7%258B%25E8%25AF%25B7%25E6%25B1%2582%25E5%25AE%259A%25E4%25BD%258D%2526lt%253B%252Fdiv%2526gt%253B%2526lt%253B%252Fdiv%2526gt%253B%2522%2520style%253D%2522rounded%253D0%253BwhiteSpace%253Dwrap%253Bhtml%253D1%253BfillColor%253Dnone%253BstrokeColor%253Dnone%253B%2522%2520vertex%253D%25221%2522%2520parent%253D%25221%2522%253E%253CmxGeometry%2520x%253D%2522470%2522%2520y%253D%2522200%2522%2520width%253D%2522120%2522%2520height%253D%252260%2522%2520as%253D%2522geometry%2522%252F%253E%253C%252FmxCell%253E%253C%252Froot%253E%253C%252FmxGraphModel%253E%26lt%3B%2Fspan%26gt%3B%26lt%3B%2Fp%26gt%3B%26lt%3B%2Fdiv%26gt%3B%26lt%3Bdiv%26gt%3B%E8%AF%B7%E6%B1%82%E5%9F%8E%E5%B8%82%E4%BF%A1%E6%81%AF%26lt%3B%2Fdiv%26gt%3B%26lt%3B%2Fdiv%26gt%3B%22%20style%3D%22rounded%3D0%3BwhiteSpace%3Dwrap%3Bhtml%3D1%3BfillColor%3Dnone%3BstrokeColor%3Dnone%3BfontStyle%3D2%3Balign%3Dcenter%3B%22%20vertex%3D%221%22%20parent%3D%221%22%3E%3CmxGeometry%20x%3D%22470%22%20y%3D%22280%22%20width%3D%22120%22%20height%3D%2260%22%20as%3D%22geometry%22%2F%3E%3C%2FmxCell%3E%3C%2Froot%3E%3C%2FmxGraphModel&lt;/span&gt;&lt;span style=&quot;font-style: normal; text-align: start;&quot;&gt;XYEXNearbyLocationManager&lt;/span&gt;&lt;/p&gt;&lt;p style=&quot;margin: 0px; font-variant-numeric: normal; font-variant-east-asian: normal; font-variant-alternates: normal; font-size-adjust: none; font-kerning: auto; font-optical-sizing: auto; font-feature-settings: normal; font-variation-settings: normal; font-variant-position: normal; font-stretch: normal; line-height: normal; font-family: Menlo; color: rgb(11, 79, 121); background-color: rgb(255, 255, 255);&quot; class=&quot;p1&quot;&gt;&lt;span style=&quot;color: rgba(0, 0, 0, 0); font-family: monospace; font-size: 0px; font-style: normal; text-align: start; text-wrap-mode: nowrap; background-color: rgb(251, 251, 251);&quot;&gt;%&lt;/span&gt;&lt;span style=&quot;color: rgb(50, 109, 116); font-style: normal; text-align: start;&quot;&gt;requestLocation&lt;/span&gt;&lt;span style=&quot;background-color: rgb(251, 251, 251); color: rgba(0, 0, 0, 0); font-family: monospace; font-size: 0px; text-wrap-mode: nowrap;&quot;&gt;%3CmxGraphModel%3E%3Croot%3E%3CmxCell%20id%3D%220%22%2F%3E%3CmxCell%20id%3D%221%22%20parent%3D%220%22%2F%3E%3CmxCell%20id%3D%222%22%20value%3D%22%26lt%3Bspan%20style%3D%26quot%3Bcolor%3A%20rgba(0%2C%200%2C%200%2C%200)%3B%20font-family%3A%20monospace%3B%20font-size%3A%200px%3B%20text-align%3A%20start%3B%20text-wrap-mode%3A%20nowrap%3B%26quot%3B%26gt%3B%253CmxGraphModel%253E%253Croot%253E%253CmxCell%2520id%253D%25220%2522%252F%253E%253CmxCell%2520id%253D%25221%2522%2520parent%253D%25220%2522%252F%253E%253CmxCell%2520id%253D%25222%2522%2520value%253D%2522%2526lt%253Bspan%2520style%253D%2526quot%253Bbackground-color%253A%2520rgb(255%252C%2520255%252C%2520255)%253B%2520color%253A%2520rgb(11%252C%252079%252C%2520121)%253B%2520font-family%253A%2520Menlo%253B%2520text-align%253A%2520start%253B%2526quot%253B%2526gt%253BXYPHHomeTabbarController%2526lt%253B%252Fspan%2526gt%253B%2526lt%253Bdiv%2526gt%253B%2526lt%253Bdiv%2520style%253D%2526quot%253Btext-align%253A%2520start%253B%2526quot%253B%2526gt%253B%2526lt%253Bp%2520style%253D%2526quot%253Bmargin%253A%25200px%253B%2520font-variant-numeric%253A%2520normal%253B%2520font-variant-east-asian%253A%2520normal%253B%2520font-variant-alternates%253A%2520normal%253B%2520font-size-adjust%253A%2520none%253B%2520font-kerning%253A%2520auto%253B%2520font-optical-sizing%253A%2520auto%253B%2520font-feature-settings%253A%2520normal%253B%2520font-variation-settings%253A%2520normal%253B%2520font-variant-position%253A%2520normal%253B%2520font-stretch%253A%2520normal%253B%2520line-height%253A%2520normal%253B%2520font-family%253A%2520Menlo%253B%2520color%253A%2520rgb(15%252C%2520104%252C%2520160)%253B%2520background-color%253A%2520rgb(255%252C%2520255%252C%2520255)%253B%2526quot%253B%2520class%253D%2526quot%253Bp1%2526quot%253B%2526gt%253BexploreFeedLoadHasFinished%2526lt%253B%252Fp%2526gt%253B%2526lt%253B%252Fdiv%2526gt%253B%2526lt%253Bdiv%2526gt%253B%25E9%25A6%2596%25E5%2588%25B7%25E5%25AE%258C%25E6%2588%2590%2526lt%253B%252Fdiv%2526gt%253B%2526lt%253B%252Fdiv%2526gt%253B%2522%2520style%253D%2522rounded%253D0%253BwhiteSpace%253Dwrap%253Bhtml%253D1%253BfillColor%253Dnone%253BstrokeColor%253Dnone%253B%2522%2520vertex%253D%25221%2522%2520parent%253D%25221%2522%253E%253CmxGeometry%2520x%253D%2522470%2522%2520y%253D%2522110%2522%2520width%253D%2522120%2522%2520height%253D%252260%2522%2520as%253D%2522geometry%2522%252F%253E%253C%252FmxCell%253E%253C%252Froot%253E%253C%252FmxGraphModel%253E%26lt%3B%2Fspan%26gt%3B%26lt%3Bbr%26gt%3B%26lt%3Bdiv%26gt%3B%26lt%3Bdiv%20style%3D%26quot%3Btext-align%3A%20start%3B%26quot%3B%26gt%3B%26lt%3Bp%20style%3D%26quot%3Bmargin%3A%200px%3B%20font-variant-numeric%3A%20normal%3B%20font-variant-east-asian%3A%20normal%3B%20font-variant-alternates%3A%20normal%3B%20font-size-adjust%3A%20none%3B%20font-kerning%3A%20auto%3B%20font-optical-sizing%3A%20auto%3B%20font-feature-settings%3A%20normal%3B%20font-variation-settings%3A%20normal%3B%20font-variant-position%3A%20normal%3B%20font-stretch%3A%20normal%3B%20line-height%3A%20normal%3B%20font-family%3A%20Menlo%3B%20color%3A%20rgb(11%2C%2079%2C%20121)%3B%20background-color%3A%20rgb(255%2C%20255%2C%20255)%3B%26quot%3B%20class%3D%26quot%3Bp1%26quot%3B%26gt%3BXYEXNearbyViewController%26lt%3B%2Fp%26gt%3B%26lt%3Bp%20style%3D%26quot%3Bmargin%3A%200px%3B%20font-variant-numeric%3A%20normal%3B%20font-variant-east-asian%3A%20normal%3B%20font-variant-alternates%3A%20normal%3B%20font-size-adjust%3A%20none%3B%20font-kerning%3A%20auto%3B%20font-optical-sizing%3A%20auto%3B%20font-feature-settings%3A%20normal%3B%20font-variation-settings%3A%20normal%3B%20font-variant-position%3A%20normal%3B%20font-stretch%3A%20normal%3B%20line-height%3A%20normal%3B%20font-family%3A%20Menlo%3B%20color%3A%20rgb(15%2C%20104%2C%20160)%3B%20background-color%3A%20rgb(255%2C%20255%2C%20255)%3B%26quot%3B%20class%3D%26quot%3Bp1%26quot%3B%26gt%3BfirstPerformPollingAction%26lt%3B%2Fp%26gt%3B%26lt%3B%2Fdiv%26gt%3B%26lt%3Bdiv%26gt%3B%E5%BC%80%E5%A7%8B%E8%AF%B7%E6%B1%82%E5%AE%9A%E4%BD%8D%26lt%3B%2Fdiv%26gt%3B%26lt%3B%2Fdiv%26gt%3B%22%20style%3D%22rounded%3D0%3BwhiteSpace%3Dwrap%3Bhtml%3D1%3BfillColor%3Dnone%3BstrokeColor%3Dnone%3B%22%20vertex%3D%221%22%20parent%3D%221%22%3E%3CmxGeometry%20x%3D%22470%22%20y%3D%22200%22%20width%3D%22120%22%20height%3D%2260%22%20as%3D%22geometry%22%2F%3E%3C%2FmxCell%3E%3C%2Froot%3E%3C%2FmxGraphModel%3E&lt;/span&gt;&lt;/p&gt;&lt;/div&gt;&lt;div&gt;获取权限信息&lt;/div&gt;&lt;/div&gt;" style="rounded=0;whiteSpace=wrap;html=1;fillColor=none;strokeColor=default;fontStyle=2;align=center;" vertex="1" parent="1">
          <mxGeometry x="1190" y="360" width="190" height="60" as="geometry" />
        </mxCell>
        <mxCell id="cepE9wcwmbxno1sN5WoF-19" value="&lt;span style=&quot;color: rgba(0, 0, 0, 0); font-family: monospace; font-size: 0px; text-wrap-mode: nowrap;&quot;&gt;%3CmxGraphModel%3E%3Croot%3E%3CmxCell%20id%3D%220%22%2F%3E%3CmxCell%20id%3D%221%22%20parent%3D%220%22%2F%3E%3CmxCell%20id%3D%222%22%20value%3D%22%26lt%3Bspan%20style%3D%26quot%3Bbackground-color%3A%20rgb(255%2C%20255%2C%20255)%3B%20color%3A%20rgb(11%2C%2079%2C%20121)%3B%20font-family%3A%20Menlo%3B%20text-align%3A%20start%3B%26quot%3B%26gt%3BXYPHHomeTabbarController%26lt%3B%2Fspan%26gt%3B%26lt%3Bdiv%26gt%3B%26lt%3Bdiv%20style%3D%26quot%3Btext-align%3A%20start%3B%26quot%3B%26gt%3B%26lt%3Bp%20style%3D%26quot%3Bmargin%3A%200px%3B%20font-variant-numeric%3A%20normal%3B%20font-variant-east-asian%3A%20normal%3B%20font-variant-alternates%3A%20normal%3B%20font-size-adjust%3A%20none%3B%20font-kerning%3A%20auto%3B%20font-optical-sizing%3A%20auto%3B%20font-feature-settings%3A%20normal%3B%20font-variation-settings%3A%20normal%3B%20font-variant-position%3A%20normal%3B%20font-stretch%3A%20normal%3B%20line-height%3A%20normal%3B%20font-family%3A%20Menlo%3B%20color%3A%20rgb(15%2C%20104%2C%20160)%3B%20background-color%3A%20rgb(255%2C%20255%2C%20255)%3B%26quot%3B%20class%3D%26quot%3Bp1%26quot%3B%26gt%3BexploreFeedLoadHasFinished%26lt%3B%2Fp%26gt%3B%26lt%3B%2Fdiv%26gt%3B%26lt%3Bdiv%26gt%3B%E9%A6%96%E5%88%B7%E5%AE%8C%E6%88%90%26lt%3B%2Fdiv%26gt%3B%26lt%3B%2Fdiv%26gt%3B%22%20style%3D%22rounded%3D0%3BwhiteSpace%3Dwrap%3Bhtml%3D1%3BfillColor%3Dnone%3BstrokeColor%3Dnone%3B%22%20vertex%3D%221%22%20parent%3D%221%22%3E%3CmxGeometry%20x%3D%22470%22%20y%3D%22110%22%20width%3D%22120%22%20height%3D%2260%22%20as%3D%22geometry%22%2F%3E%3C%2FmxCell%3E%3C%2Froot%3E%3C%2FmxGraphModel%3E&lt;/span&gt;&lt;br&gt;&lt;div&gt;&lt;div style=&quot;&quot;&gt;&lt;p style=&quot;margin: 0px; font-variant-numeric: normal; font-variant-east-asian: normal; font-variant-alternates: normal; font-size-adjust: none; font-kerning: auto; font-optical-sizing: auto; font-feature-settings: normal; font-variation-settings: normal; font-variant-position: normal; font-stretch: normal; line-height: normal; font-family: Menlo; color: rgb(11, 79, 121); background-color: rgb(255, 255, 255);&quot; class=&quot;p1&quot;&gt;XYEXNearbyViewController&lt;/p&gt;&lt;p style=&quot;margin: 0px; font-variant-numeric: normal; font-variant-east-asian: normal; font-variant-alternates: normal; font-size-adjust: none; font-kerning: auto; font-optical-sizing: auto; font-feature-settings: normal; font-variation-settings: normal; font-variant-position: normal; font-stretch: normal; line-height: normal; font-family: Menlo; color: rgb(11, 79, 121); background-color: rgb(255, 255, 255);&quot; class=&quot;p1&quot;&gt;&lt;span style=&quot;color: rgb(50, 109, 116);&quot;&gt;requestHeader&lt;/span&gt;&lt;span style=&quot;background-color: rgb(251, 251, 251); color: rgba(0, 0, 0, 0); font-family: monospace; font-size: 0px; text-wrap-mode: nowrap;&quot;&gt;%3CmxGraphModel%3E%3Croot%3E%3CmxCell%20id%3D%220%22%2F%3E%3CmxCell%20id%3D%221%22%20parent%3D%220%22%2F%3E%3CmxCell%20id%3D%222%22%20value%3D%22%26lt%3Bspan%20style%3D%26quot%3Bcolor%3A%20rgba(0%2C%200%2C%200%2C%200)%3B%20font-family%3A%20monospace%3B%20font-size%3A%200px%3B%20text-align%3A%20start%3B%20text-wrap-mode%3A%20nowrap%3B%26quot%3B%26gt%3B%253CmxGraphModel%253E%253Croot%253E%253CmxCell%2520id%253D%25220%2522%252F%253E%253CmxCell%2520id%253D%25221%2522%2520parent%253D%25220%2522%252F%253E%253CmxCell%2520id%253D%25222%2522%2520value%253D%2522%2526lt%253Bspan%2520style%253D%2526quot%253Bbackground-color%253A%2520rgb(255%252C%2520255%252C%2520255)%253B%2520color%253A%2520rgb(11%252C%252079%252C%2520121)%253B%2520font-family%253A%2520Menlo%253B%2520text-align%253A%2520start%253B%2526quot%253B%2526gt%253BXYPHHomeTabbarController%2526lt%253B%252Fspan%2526gt%253B%2526lt%253Bdiv%2526gt%253B%2526lt%253Bdiv%2520style%253D%2526quot%253Btext-align%253A%2520start%253B%2526quot%253B%2526gt%253B%2526lt%253Bp%2520style%253D%2526quot%253Bmargin%253A%25200px%253B%2520font-variant-numeric%253A%2520normal%253B%2520font-variant-east-asian%253A%2520normal%253B%2520font-variant-alternates%253A%2520normal%253B%2520font-size-adjust%253A%2520none%253B%2520font-kerning%253A%2520auto%253B%2520font-optical-sizing%253A%2520auto%253B%2520font-feature-settings%253A%2520normal%253B%2520font-variation-settings%253A%2520normal%253B%2520font-variant-position%253A%2520normal%253B%2520font-stretch%253A%2520normal%253B%2520line-height%253A%2520normal%253B%2520font-family%253A%2520Menlo%253B%2520color%253A%2520rgb(15%252C%2520104%252C%2520160)%253B%2520background-color%253A%2520rgb(255%252C%2520255%252C%2520255)%253B%2526quot%253B%2520class%253D%2526quot%253Bp1%2526quot%253B%2526gt%253BexploreFeedLoadHasFinished%2526lt%253B%252Fp%2526gt%253B%2526lt%253B%252Fdiv%2526gt%253B%2526lt%253Bdiv%2526gt%253B%25E9%25A6%2596%25E5%2588%25B7%25E5%25AE%258C%25E6%2588%2590%2526lt%253B%252Fdiv%2526gt%253B%2526lt%253B%252Fdiv%2526gt%253B%2522%2520style%253D%2522rounded%253D0%253BwhiteSpace%253Dwrap%253Bhtml%253D1%253BfillColor%253Dnone%253BstrokeColor%253Dnone%253B%2522%2520vertex%253D%25221%2522%2520parent%253D%25221%2522%253E%253CmxGeometry%2520x%253D%2522470%2522%2520y%253D%2522110%2522%2520width%253D%2522120%2522%2520height%253D%252260%2522%2520as%253D%2522geometry%2522%252F%253E%253C%252FmxCell%253E%253C%252Froot%253E%253C%252FmxGraphModel%253E%26lt%3B%2Fspan%26gt%3B%26lt%3Bbr%26gt%3B%26lt%3Bdiv%26gt%3B%26lt%3Bdiv%20style%3D%26quot%3Btext-align%3A%20start%3B%26quot%3B%26gt%3B%26lt%3Bp%20style%3D%26quot%3Bmargin%3A%200px%3B%20font-variant-numeric%3A%20normal%3B%20font-variant-east-asian%3A%20normal%3B%20font-variant-alternates%3A%20normal%3B%20font-size-adjust%3A%20none%3B%20font-kerning%3A%20auto%3B%20font-optical-sizing%3A%20auto%3B%20font-feature-settings%3A%20normal%3B%20font-variation-settings%3A%20normal%3B%20font-variant-position%3A%20normal%3B%20font-stretch%3A%20normal%3B%20line-height%3A%20normal%3B%20font-family%3A%20Menlo%3B%20color%3A%20rgb(11%2C%2079%2C%20121)%3B%20background-color%3A%20rgb(255%2C%20255%2C%20255)%3B%26quot%3B%20class%3D%26quot%3Bp1%26quot%3B%26gt%3BXYEXNearbyViewController%26lt%3B%2Fp%26gt%3B%26lt%3Bp%20style%3D%26quot%3Bmargin%3A%200px%3B%20font-variant-numeric%3A%20normal%3B%20font-variant-east-asian%3A%20normal%3B%20font-variant-alternates%3A%20normal%3B%20font-size-adjust%3A%20none%3B%20font-kerning%3A%20auto%3B%20font-optical-sizing%3A%20auto%3B%20font-feature-settings%3A%20normal%3B%20font-variation-settings%3A%20normal%3B%20font-variant-position%3A%20normal%3B%20font-stretch%3A%20normal%3B%20line-height%3A%20normal%3B%20font-family%3A%20Menlo%3B%20color%3A%20rgb(15%2C%20104%2C%20160)%3B%20background-color%3A%20rgb(255%2C%20255%2C%20255)%3B%26quot%3B%20class%3D%26quot%3Bp1%26quot%3B%26gt%3BfirstPerformPollingAction%26lt%3B%2Fp%26gt%3B%26lt%3B%2Fdiv%26gt%3B%26lt%3Bdiv%26gt%3B%E5%BC%80%E5%A7%8B%E8%AF%B7%E6%B1%82%E5%AE%9A%E4%BD%8D%26lt%3B%2Fdiv%26gt%3B%26lt%3B%2Fdiv%26gt%3B%22%20style%3D%22rounded%3D0%3BwhiteSpace%3Dwrap%3Bhtml%3D1%3BfillColor%3Dnone%3BstrokeColor%3Dnone%3B%22%20vertex%3D%221%22%20parent%3D%221%22%3E%3CmxGeometry%20x%3D%22470%22%20y%3D%22200%22%20width%3D%22120%22%20height%3D%2260%22%20as%3D%22geometry%22%2F%3E%3C%2FmxCell%3E%3C%2Froot%3E%3C%2FmxGraphModel%3E&lt;/span&gt;&lt;/p&gt;&lt;/div&gt;&lt;div&gt;请求城市信息&lt;/div&gt;&lt;/div&gt;" style="rounded=0;whiteSpace=wrap;html=1;fillColor=none;strokeColor=default;fontStyle=2;align=center;" vertex="1" parent="1">
          <mxGeometry x="1195" y="584.5" width="190" height="60" as="geometry" />
        </mxCell>
        <mxCell id="cepE9wcwmbxno1sN5WoF-20" value="" style="endArrow=classic;html=1;rounded=0;" edge="1" parent="1">
          <mxGeometry width="50" height="50" relative="1" as="geometry">
            <mxPoint x="1289.5" y="420" as="sourcePoint" />
            <mxPoint x="1289.93" y="460" as="targetPoint" />
          </mxGeometry>
        </mxCell>
        <mxCell id="cepE9wcwmbxno1sN5WoF-24" value="" style="edgeStyle=orthogonalEdgeStyle;rounded=0;orthogonalLoop=1;jettySize=auto;html=1;" edge="1" parent="1" source="cepE9wcwmbxno1sN5WoF-21" target="cepE9wcwmbxno1sN5WoF-19">
          <mxGeometry relative="1" as="geometry" />
        </mxCell>
        <mxCell id="cepE9wcwmbxno1sN5WoF-25" value="是" style="edgeLabel;html=1;align=center;verticalAlign=middle;resizable=0;points=[];" vertex="1" connectable="0" parent="cepE9wcwmbxno1sN5WoF-24">
          <mxGeometry x="-0.6581" relative="1" as="geometry">
            <mxPoint as="offset" />
          </mxGeometry>
        </mxCell>
        <mxCell id="cepE9wcwmbxno1sN5WoF-30" value="" style="edgeStyle=orthogonalEdgeStyle;rounded=0;orthogonalLoop=1;jettySize=auto;html=1;" edge="1" parent="1" source="cepE9wcwmbxno1sN5WoF-21" target="cepE9wcwmbxno1sN5WoF-28">
          <mxGeometry relative="1" as="geometry" />
        </mxCell>
        <mxCell id="cepE9wcwmbxno1sN5WoF-21" value="是否有权限" style="rhombus;whiteSpace=wrap;html=1;" vertex="1" parent="1">
          <mxGeometry x="1250" y="472.5" width="80" height="55" as="geometry" />
        </mxCell>
        <mxCell id="cepE9wcwmbxno1sN5WoF-28" value="&lt;span style=&quot;color: rgba(0, 0, 0, 0); font-family: monospace; font-size: 0px; text-wrap-mode: nowrap;&quot;&gt;%3CmxGraphModel%3E%3Croot%3E%3CmxCell%20id%3D%220%22%2F%3E%3CmxCell%20id%3D%221%22%20parent%3D%220%22%2F%3E%3CmxCell%20id%3D%222%22%20value%3D%22%26lt%3Bspan%20style%3D%26quot%3Bbackground-color%3A%20rgb(255%2C%20255%2C%20255)%3B%20color%3A%20rgb(11%2C%2079%2C%20121)%3B%20font-family%3A%20Menlo%3B%20text-align%3A%20start%3B%26quot%3B%26gt%3BXYPHHomeTabbarController%26lt%3B%2Fspan%26gt%3B%26lt%3Bdiv%26gt%3B%26lt%3Bdiv%20style%3D%26quot%3Btext-align%3A%20start%3B%26quot%3B%26gt%3B%26lt%3Bp%20style%3D%26quot%3Bmargin%3A%200px%3B%20font-variant-numeric%3A%20normal%3B%20font-variant-east-asian%3A%20normal%3B%20font-variant-alternates%3A%20normal%3B%20font-size-adjust%3A%20none%3B%20font-kerning%3A%20auto%3B%20font-optical-sizing%3A%20auto%3B%20font-feature-settings%3A%20normal%3B%20font-variation-settings%3A%20normal%3B%20font-variant-position%3A%20normal%3B%20font-stretch%3A%20normal%3B%20line-height%3A%20normal%3B%20font-family%3A%20Menlo%3B%20color%3A%20rgb(15%2C%20104%2C%20160)%3B%20background-color%3A%20rgb(255%2C%20255%2C%20255)%3B%26quot%3B%20class%3D%26quot%3Bp1%26quot%3B%26gt%3BexploreFeedLoadHasFinished%26lt%3B%2Fp%26gt%3B%26lt%3B%2Fdiv%26gt%3B%26lt%3Bdiv%26gt%3B%E9%A6%96%E5%88%B7%E5%AE%8C%E6%88%90%26lt%3B%2Fdiv%26gt%3B%26lt%3B%2Fdiv%26gt%3B%22%20style%3D%22rounded%3D0%3BwhiteSpace%3Dwrap%3Bhtml%3D1%3BfillColor%3Dnone%3BstrokeColor%3Dnone%3B%22%20vertex%3D%221%22%20parent%3D%221%22%3E%3CmxGeometry%20x%3D%22470%22%20y%3D%22110%22%20width%3D%22120%22%20height%3D%2260%22%20as%3D%22geometry%22%2F%3E%3C%2FmxCell%3E%3C%2Froot%3E%3C%2FmxGraphModel%3E&lt;/span&gt;&lt;br&gt;&lt;div&gt;&lt;div style=&quot;&quot;&gt;&lt;p style=&quot;margin: 0px; font-variant-numeric: normal; font-variant-east-asian: normal; font-variant-alternates: normal; font-size-adjust: none; font-kerning: auto; font-optical-sizing: auto; font-feature-settings: normal; font-variation-settings: normal; font-variant-position: normal; font-stretch: normal; line-height: normal; font-family: Menlo; color: rgb(11, 79, 121); background-color: rgb(255, 255, 255);&quot; class=&quot;p1&quot;&gt;&lt;span style=&quot;text-wrap-mode: nowrap; color: rgba(0, 0, 0, 0); font-family: monospace; font-size: 0px; font-style: normal; text-align: start; background-color: rgb(251, 251, 251);&quot;&gt;2FmxGraphModel&lt;/span&gt;&lt;span style=&quot;font-style: normal; text-align: start;&quot;&gt;XYEXNearbyLocationManager&lt;/span&gt;&lt;/p&gt;&lt;p style=&quot;margin: 0px; font-variant-numeric: normal; font-variant-east-asian: normal; font-variant-alternates: normal; font-size-adjust: none; font-kerning: auto; font-optical-sizing: auto; font-feature-settings: normal; font-variation-settings: normal; font-variant-position: normal; font-stretch: normal; line-height: normal; font-family: Menlo; color: rgb(11, 79, 121); background-color: rgb(255, 255, 255);&quot; class=&quot;p1&quot;&gt;&lt;span style=&quot;color: rgb(15, 104, 160); font-style: normal; text-align: start;&quot;&gt;changeCityDialog&lt;/span&gt;&lt;span style=&quot;background-color: rgb(251, 251, 251); color: rgba(0, 0, 0, 0); font-family: monospace; font-size: 0px; text-wrap-mode: nowrap;&quot;&gt;%3CmxGraphModel%3E%3Croot%3E%3CmxCell%20id%3D%220%22%2F%3E%3CmxCell%20id%3D%221%22%20parent%3D%220%22%2F%3E%3CmxCell%20id%3D%222%22%20value%3D%22%26lt%3Bspan%20style%3D%26quot%3Bcolor%3A%20rgba(0%2C%200%2C%200%2C%200)%3B%20font-family%3A%20monospace%3B%20font-size%3A%200px%3B%20text-align%3A%20start%3B%20text-wrap-mode%3A%20nowrap%3B%26quot%3B%26gt%3B%253CmxGraphModel%253E%253Croot%253E%253CmxCell%2520id%253D%25220%2522%252F%253E%253CmxCell%2520id%253D%25221%2522%2520parent%253D%25220%2522%252F%253E%253CmxCell%2520id%253D%25222%2522%2520value%253D%2522%2526lt%253Bspan%2520style%253D%2526quot%253Bbackground-color%253A%2520rgb(255%252C%2520255%252C%2520255)%253B%2520color%253A%2520rgb(11%252C%252079%252C%2520121)%253B%2520font-family%253A%2520Menlo%253B%2520text-align%253A%2520start%253B%2526quot%253B%2526gt%253BXYPHHomeTabbarController%2526lt%253B%252Fspan%2526gt%253B%2526lt%253Bdiv%2526gt%253B%2526lt%253Bdiv%2520style%253D%2526quot%253Btext-align%253A%2520start%253B%2526quot%253B%2526gt%253B%2526lt%253Bp%2520style%253D%2526quot%253Bmargin%253A%25200px%253B%2520font-variant-numeric%253A%2520normal%253B%2520font-variant-east-asian%253A%2520normal%253B%2520font-variant-alternates%253A%2520normal%253B%2520font-size-adjust%253A%2520none%253B%2520font-kerning%253A%2520auto%253B%2520font-optical-sizing%253A%2520auto%253B%2520font-feature-settings%253A%2520normal%253B%2520font-variation-settings%253A%2520normal%253B%2520font-variant-position%253A%2520normal%253B%2520font-stretch%253A%2520normal%253B%2520line-height%253A%2520normal%253B%2520font-family%253A%2520Menlo%253B%2520color%253A%2520rgb(15%252C%2520104%252C%2520160)%253B%2520background-color%253A%2520rgb(255%252C%2520255%252C%2520255)%253B%2526quot%253B%2520class%253D%2526quot%253Bp1%2526quot%253B%2526gt%253BexploreFeedLoadHasFinished%2526lt%253B%252Fp%2526gt%253B%2526lt%253B%252Fdiv%2526gt%253B%2526lt%253Bdiv%2526gt%253B%25E9%25A6%2596%25E5%2588%25B7%25E5%25AE%258C%25E6%2588%2590%2526lt%253B%252Fdiv%2526gt%253B%2526lt%253B%252Fdiv%2526gt%253B%2522%2520style%253D%2522rounded%253D0%253BwhiteSpace%253Dwrap%253Bhtml%253D1%253BfillColor%253Dnone%253BstrokeColor%253Dnone%253B%2522%2520vertex%253D%25221%2522%2520parent%253D%25221%2522%253E%253CmxGeometry%2520x%253D%2522470%2522%2520y%253D%2522110%2522%2520width%253D%2522120%2522%2520height%253D%252260%2522%2520as%253D%2522geometry%2522%252F%253E%253C%252FmxCell%253E%253C%252Froot%253E%253C%252FmxGraphModel%253E%26lt%3B%2Fspan%26gt%3B%26lt%3Bbr%26gt%3B%26lt%3Bdiv%26gt%3B%26lt%3Bdiv%20style%3D%26quot%3Btext-align%3A%20start%3B%26quot%3B%26gt%3B%26lt%3Bp%20style%3D%26quot%3Bmargin%3A%200px%3B%20font-variant-numeric%3A%20normal%3B%20font-variant-east-asian%3A%20normal%3B%20font-variant-alternates%3A%20normal%3B%20font-size-adjust%3A%20none%3B%20font-kerning%3A%20auto%3B%20font-optical-sizing%3A%20auto%3B%20font-feature-settings%3A%20normal%3B%20font-variation-settings%3A%20normal%3B%20font-variant-position%3A%20normal%3B%20font-stretch%3A%20normal%3B%20line-height%3A%20normal%3B%20font-family%3A%20Menlo%3B%20color%3A%20rgb(11%2C%2079%2C%20121)%3B%20background-color%3A%20rgb(255%2C%20255%2C%20255)%3B%26quot%3B%20class%3D%26quot%3Bp1%26quot%3B%26gt%3BXYEXNearbyViewController%26lt%3B%2Fp%26gt%3B%26lt%3Bp%20style%3D%26quot%3Bmargin%3A%200px%3B%20font-variant-numeric%3A%20normal%3B%20font-variant-east-asian%3A%20normal%3B%20font-variant-alternates%3A%20normal%3B%20font-size-adjust%3A%20none%3B%20font-kerning%3A%20auto%3B%20font-optical-sizing%3A%20auto%3B%20font-feature-settings%3A%20normal%3B%20font-variation-settings%3A%20normal%3B%20font-variant-position%3A%20normal%3B%20font-stretch%3A%20normal%3B%20line-height%3A%20normal%3B%20font-family%3A%20Menlo%3B%20color%3A%20rgb(15%2C%20104%2C%20160)%3B%20background-color%3A%20rgb(255%2C%20255%2C%20255)%3B%26quot%3B%20class%3D%26quot%3Bp1%26quot%3B%26gt%3BfirstPerformPollingAction%26lt%3B%2Fp%26gt%3B%26lt%3B%2Fdiv%26gt%3B%26lt%3Bdiv%26gt%3B%E5%BC%80%E5%A7%8B%E8%AF%B7%E6%B1%82%E5%AE%9A%E4%BD%8D%26lt%3B%2Fdiv%26gt%3B%26lt%3B%2Fdiv%26gt%3B%22%20style%3D%22rounded%3D0%3BwhiteSpace%3Dwrap%3Bhtml%3D1%3BfillColor%3Dnone%3BstrokeColor%3Dnone%3B%22%20vertex%3D%221%22%20parent%3D%221%22%3E%3CmxGeometry%20x%3D%22470%22%20y%3D%22200%22%20width%3D%22120%22%20height%3D%2260%22%20as%3D%22geometry%22%2F%3E%3C%2FmxCell%3E%3C%2Froot%3E%3C%2FmxGraphModel%3E&lt;/span&gt;&lt;/p&gt;&lt;/div&gt;&lt;div&gt;提醒定位弹窗&lt;/div&gt;&lt;/div&gt;" style="rounded=0;whiteSpace=wrap;html=1;fillColor=none;strokeColor=default;fontStyle=2;align=center;" vertex="1" parent="1">
          <mxGeometry x="1400" y="470" width="210" height="60" as="geometry" />
        </mxCell>
        <mxCell id="cepE9wcwmbxno1sN5WoF-39" style="edgeStyle=orthogonalEdgeStyle;rounded=0;orthogonalLoop=1;jettySize=auto;html=1;exitX=0.5;exitY=1;exitDx=0;exitDy=0;" edge="1" parent="1" source="cepE9wcwmbxno1sN5WoF-9" target="cepE9wcwmbxno1sN5WoF-9">
          <mxGeometry relative="1" as="geometry" />
        </mxCell>
        <mxCell id="cepE9wcwmbxno1sN5WoF-41" value="城市名请求逻辑" style="text;html=1;align=center;verticalAlign=middle;resizable=0;points=[];autosize=1;strokeColor=none;fillColor=none;fontSize=40;" vertex="1" parent="1">
          <mxGeometry x="710" y="-27" width="300" height="60" as="geometry" />
        </mxCell>
      </root>
    </mxGraphModel>
  </diagram>
</mxfile>
